<svg xmlns="http://www.w3.org/2000/svg" width="1277" height="701" fill="none" xmlns:v="https://vecta.io/nano"><style><![CDATA[.A{animation:sparkle 3000ms infinite alternate;transform-origin:50%}.A:nth-child(2){animation-delay:1364ms}.A:nth-child(3){animation-delay:1449ms}.A:nth-child(4){animation-delay:1803ms}.A:nth-child(5){animation-delay:929ms}.A:nth-child(6){animation-delay:1274ms}.A:nth-child(7){animation-delay:744ms}.A:nth-child(8){animation-delay:443ms}.A:nth-child(9){animation-delay:31ms}.A:nth-child(10){animation-delay:1161ms}.A:nth-child(11){animation-delay:354ms}.A:nth-child(12){animation-delay:989ms}.A:nth-child(13){animation-delay:1228ms}.A:nth-child(14){animation-delay:1532ms}.A:nth-child(15){animation-delay:1408ms}.A:nth-child(16){animation-delay:21ms}.A:nth-child(17){animation-delay:281ms}.A:nth-child(18){animation-delay:12ms}.A:nth-child(19){animation-delay:1520ms}.A:nth-child(20){animation-delay:576ms}.A:nth-child(21){animation-delay:1784ms}.A:nth-child(22){animation-delay:1733ms}.A:nth-child(23){animation-delay:1820ms}.A:nth-child(24){animation-delay:1456ms}.A:nth-child(25){animation-delay:450ms}.A:nth-child(26){animation-delay:1410ms}@keyframes sparkle{60%{opacity:0.4;transform:scale(1)}80%{opacity:0.8;transform:scale(1.2)}100%{opacity:0.4;transform:scale(1)}}.B{opacity:.4}.C{fill:#fff}.D{stroke:#fff}]]></style><g stroke-linejoin="round" class="D A"><path class="B" d="M635.824 5.072l1.833-4.363-4.632.975 2.799 3.387z"/><path class="B" d="M190.409 486.984l-1.833-4.363 4.632.975-2.799 3.388z"/></g><g class="C A"><path class="B" d="M796.971 247.867a1.87 1.87 0 1 1 0-3.741 1.87 1.87 0 1 1 0 3.741z"/><path class="B" d="M33.87 439.741a1.87 1.87 0 1 1 0-3.741 1.87 1.87 0 1 1 0 3.741z"/><path class="B" d="M23.87 680.741a1.87 1.87 0 1 1 0-3.741 1.87 1.87 0 1 1 0 3.741z"/></g><g class="D A"><path class="B" d="M900.305 42.491c-.131.228-.147.636.18 1.307.317.652.906 1.437 1.745 2.304 1.672 1.729 4.257 3.701 7.359 5.493s6.102 3.044 8.435 3.628c1.17.293 2.144.411 2.867.359.744-.053 1.09-.27 1.221-.498s.147-.636-.179-1.307c-.318-.652-.907-1.437-1.745-2.304-1.673-1.729-4.257-3.701-7.359-5.493s-6.102-3.044-8.435-3.628c-1.17-.293-2.144-.41-2.867-.359-.745.053-1.09.27-1.222.498z"/><path class="B" d="M649.524 283.762c-.723.553-1.403 1.237-2.005 2.034l.399.301c-.269.357-.523.739-.756 1.143s-.437.815-.612 1.227l-.46-.195c-.39.92-.641 1.851-.759 2.754l.496.064c-.124.952-.09 1.861.091 2.677l-.488.108c.218.986.637 1.859 1.249 2.543l.372-.333c.283.317.611.586.984.801a4 4 0 0 0 1.185.452l-.102.489c.898.188 1.864.114 2.826-.19l-.15-.477c.796-.251 1.601-.676 2.362-1.259l.304.397c.723-.553 1.404-1.237 2.005-2.034l-.399-.301a11.05 11.05 0 0 0 .756-1.144c.234-.404.437-.814.612-1.226l.46.195c.39-.92.641-1.851.759-2.754l-.496-.065c.124-.951.09-1.86-.091-2.676l.489-.108c-.218-.986-.637-1.859-1.249-2.544l-.373.334a3.99 3.99 0 0 0-.983-.802c-.373-.215-.77-.364-1.186-.451l.103-.489c-.899-.188-1.865-.115-2.827.189l.151.477c-.797.252-1.601.677-2.363 1.26l-.304-.397z"/><path class="B" d="M1052.73 351.11c.63-.626.63-1.642 0-2.268-.62-.627-1.64-.627-2.26 0l-4.63 4.629a1.6 1.6 0 0 0 0 2.269c.62.626 1.64.626 2.27 0l4.62-4.63z"/></g><g class="C A"><path class="B" d="M824.813 481.419c-.516 0-.935-.419-.935-.936s.419-.935.935-.935.935.419.935.935-.419.936-.935.936z"/><path class="B" d="M548.592 463.436c-.516 0-.935-.419-.935-.936s.419-.935.935-.935.935.419.935.935-.419.936-.935.936z"/><path class="B" d="M677.935 588.871c-.516 0-.935-.419-.935-.936s.419-.935.935-.935.935.419.935.935-.419.936-.935.936z"/><path class="B" d="M286.81 208.087c-.447-.258-.6-.83-.342-1.277s.83-.601 1.277-.343.601.831.342 1.278-.83.601-1.277.342z"/><path class="B" d="M508.097 50.708c-.516 0-.935-.419-.935-.935s.419-.935.935-.935.935.419.935.935-.419.935-.935.935z"/></g><path class="A B D" d="M1.078 234.498c0 1.144.927 2.072 2.071 2.072s2.071-.928 2.071-2.072a2.07 2.07 0 1 0-4.142 0z"/><path class="A B C" d="M886.484 553.004c-.516 0-.935-.419-.935-.936s.419-.935.935-.935.935.419.935.935-.419.936-.935.936z"/><g class="A B C"><path d="M141.448 48h.245v5.144h-.245V48z"/><path d="M139 50.695v-.245h5.142v.245H139z"/><path d="M139.667 48.84l.173-.173 3.636 3.637-.173.173-3.636-3.637z"/><path d="M143.476 48.84l-.173-.173-3.636 3.637.173.173 3.636-3.637z"/></g><g class="A B C"><path d="M303.776 64.665h.245v5.144h-.245v-5.144z"/><path d="M301.327 67.359v-.245h5.142v.245h-5.142z"/><path d="M301.994 65.504l.173-.173 3.636 3.637-.173.173-3.636-3.637z"/><path d="M305.803 65.504l-.173-.173-3.636 3.637.173.173 3.636-3.637z"/></g><g class="C A"><path class="B" d="M1275.93 340.871c-.51 0-.93-.419-.93-.936s.42-.935.93-.935c.52 0 .94.419.94.935s-.42.936-.94.936z"/><path class="B" d="M1177.87 181.741a1.87 1.87 0 0 1 0-3.741 1.87 1.87 0 0 1 0 3.741z"/><path class="B" d="M846.87 685.741a1.87 1.87 0 1 1 0-3.741 1.87 1.87 0 1 1 0 3.741z"/><path class="B" d="M400.846 506.872a1.87 1.87 0 1 1 0-3.741 1.87 1.87 0 1 1 0 3.741z"/></g><path class="A B D" d="M316.849 614.655c.626-.626.626-1.642 0-2.268s-1.642-.627-2.268 0l-4.628 4.629c-.626.626-.626 1.642 0 2.269s1.642.626 2.268 0l4.628-4.63z"/><path class="A B C" d="M494.819 585.256c-.516 0-.935-.419-.935-.936s.419-.935.935-.935.935.419.935.935-.419.936-.935.936z"/><path class="A B D" d="M779.315 509.443a2.07 2.07 0 1 0 4.142 0 2.07 2.07 0 1 0-4.142 0z"/><path class="A B C" fill-rule="evenodd" d="M1240.65 682.63l1.48 17.616-.73-17.663 3.68 17.291-2.95-17.432 5.82 16.693-5.1-16.925 7.86 15.832-7.18-16.152 9.79 14.721-9.16-15.124 11.56 13.379-10.98-13.858 13.14 11.825-12.62-12.373 14.52 10.085-14.08-10.693 15.67 8.186-15.31-8.844 16.57 6.157-16.29-6.856 17.21 4.032-17.03-4.76 17.59 1.843-17.49-2.588 17.67-.376-17.67-.376 17.49-2.587-17.59 1.842 17.03-4.759-17.21 4.031 16.29-6.856-16.57 6.157 15.31-8.843-15.67 8.185 14.08-10.693-14.52 10.085 12.62-12.373-13.14 11.825 10.98-13.858-11.56 13.379 9.16-15.124-9.79 14.722 7.18-16.153-7.86 15.833 5.1-16.926-5.82 16.694 2.95-17.432-3.68 17.291.73-17.663-1.48 17.616-1.49-17.616.74 17.663-3.68-17.291 2.94 17.432-5.82-16.694 5.1 16.926-7.86-15.833 7.18 16.153-9.78-14.722 9.15 15.124-11.56-13.379 10.98 13.858-13.14-11.825 12.63 12.373-14.52-10.085 14.07 10.693-15.67-8.185 15.31 8.843-16.57-6.157 16.3 6.856-17.22-4.031 17.03 4.759-17.58-1.842 17.48 2.587-17.67.376 17.67.376-17.48 2.588 17.58-1.843-17.03 4.76 17.22-4.032-16.3 6.856 16.57-6.157-15.31 8.844 15.67-8.186-14.07 10.693 14.52-10.085-12.63 12.373 13.14-11.825-10.98 13.858 11.56-13.379-9.15 15.124 9.78-14.721-7.18 16.152 7.86-15.832-5.1 16.925 5.82-16.693-2.94 17.432 3.68-17.291-.74 17.663 1.49-17.616z"/></svg>