<svg width="364" height="2250" viewBox="0 0 364 2250" fill="none" xmlns="http://www.w3.org/2000/svg">
<g opacity="0.2">
<path d="M319.178 188C317.749 188 316.456 188.577 315.519 189.51L317.283 191.281C316.796 191.767 316.5 192.429 316.5 193.164H314C314 194.591 314.581 195.883 315.519 196.818L317.283 195.046C317.77 195.531 318.436 195.828 319.178 195.828V198.328C320.606 198.328 321.899 197.751 322.836 196.818L321.072 195.046C321.559 194.561 321.855 193.899 321.855 193.164H324.355C324.355 191.737 323.775 190.445 322.836 189.51L321.072 191.281C320.585 190.797 319.919 190.5 319.178 190.5V188Z" stroke="#FAF6ED" stroke-width="5" stroke-dasharray="0 9"/>
<ellipse cx="0.796541" cy="0.794434" rx="0.796541" ry="0.794434" transform="matrix(-1 0 0 1 319.974 192.369)" fill="#FAF6ED"/>
<path d="M16.2293 47.5212C14.8008 47.5212 13.5075 48.0982 12.5707 49.0313L14.335 50.8025C13.8476 51.288 13.5518 51.9503 13.5518 52.6851H11.0518C11.0518 54.1122 11.6323 55.4042 12.5707 56.3388L14.335 54.5676C14.8216 55.0523 15.4877 55.3489 16.2293 55.3489V57.8489C17.6578 57.8489 18.9512 57.2719 19.888 56.3388L18.1237 54.5676C18.6111 54.0821 18.9069 53.4198 18.9069 52.6851H21.4069C21.4069 51.2579 20.8263 49.9659 19.888 49.0313L18.1237 50.8025C17.6371 50.3178 16.971 50.0212 16.2293 50.0212V47.5212Z" stroke="#FAF6ED" stroke-width="5" stroke-dasharray="0 9"/>
<ellipse cx="0.796541" cy="0.794434" rx="0.796541" ry="0.794434" transform="matrix(-1 0 0 1 17.0259 51.8906)" fill="#FAF6ED"/>
<path fill-rule="evenodd" clip-rule="evenodd" d="M220 286.781L227.844 283.494L226.091 291.802L220 286.781Z" stroke="#FAF6ED" stroke-linecap="round" stroke-linejoin="round"/>
<path fill-rule="evenodd" clip-rule="evenodd" d="M243.45 675.854L245.012 672.149L241.066 672.977L243.45 675.854Z" stroke="#FAF6ED" stroke-linecap="round" stroke-linejoin="round"/>
<ellipse cx="1.59308" cy="1.58887" rx="1.59308" ry="1.58887" transform="matrix(-1 0 0 1 160.186 0)" fill="#FAF6ED"/>
<ellipse cx="1.59308" cy="1.58887" rx="1.59308" ry="1.58887" transform="matrix(-1 0 0 1 186.849 506.968)" fill="#FAF6ED"/>
<ellipse cx="1.59308" cy="1.58887" rx="1.59308" ry="1.58887" transform="matrix(-1 0 0 1 191.732 609.831)" fill="#FAF6ED"/>
<ellipse cx="1.59308" cy="1.58887" rx="1.59308" ry="1.58887" transform="matrix(-1 0 0 1 75.7484 812.514)" fill="#FAF6ED"/>
<ellipse cx="1.59308" cy="1.58887" rx="1.59308" ry="1.58887" transform="matrix(-1 0 0 1 64.15 109.514)" fill="#FAF6ED"/>
<path d="M341.026 54.0015C340.934 54.1616 340.907 54.478 341.182 55.041C341.447 55.585 341.943 56.2453 342.655 56.9791C344.074 58.4417 346.27 60.1131 348.908 61.6323C351.546 63.1516 354.096 64.2124 356.075 64.7067C357.068 64.9546 357.889 65.0526 358.494 65.01C359.121 64.9659 359.382 64.7847 359.475 64.6246C359.568 64.4645 359.594 64.148 359.319 63.585C359.054 63.0411 358.558 62.3808 357.846 61.647C356.427 60.1844 354.232 58.513 351.593 56.9938C348.955 55.4745 346.406 54.4136 344.426 53.9194C343.433 53.6714 342.612 53.5735 342.007 53.6161C341.38 53.6602 341.119 53.8414 341.026 54.0015Z" stroke="#FAF6ED"/>
<path d="M298.318 788.234C297.786 789.093 297.398 790.127 297.208 791.265L297.701 791.348C297.618 791.84 297.575 792.354 297.575 792.883H297.075C297.075 793.439 297.121 793.98 297.208 794.5L297.701 794.418C297.881 795.497 298.248 796.469 298.743 797.268L298.318 797.531C298.936 798.528 299.749 799.287 300.675 799.695L300.877 799.238C301.314 799.43 301.775 799.533 302.252 799.533V800.033C302.802 800.033 303.332 799.914 303.829 799.695L303.627 799.238C304.443 798.878 305.185 798.197 305.761 797.268L306.186 797.531C306.718 796.673 307.106 795.639 307.297 794.5L306.803 794.418C306.886 793.925 306.93 793.412 306.93 792.883H307.43C307.43 792.327 307.384 791.785 307.297 791.265L306.803 791.348C306.623 790.269 306.257 789.297 305.761 788.498L306.186 788.234C305.568 787.238 304.755 786.479 303.829 786.071L303.627 786.528C303.19 786.335 302.729 786.233 302.252 786.233V785.733C301.702 785.733 301.172 785.851 300.675 786.071L300.877 786.528C300.061 786.888 299.319 787.569 298.743 788.498L298.318 788.234Z" stroke="#FAF6ED" stroke-dasharray="0 3"/>
<path d="M358.178 473C356.749 473 355.456 473.577 354.519 474.51L356.283 476.281C355.796 476.767 355.5 477.429 355.5 478.164H353C353 479.591 353.581 480.883 354.519 481.818L356.283 480.046C356.77 480.531 357.436 480.828 358.178 480.828V483.328C359.606 483.328 360.899 482.751 361.836 481.818L360.072 480.046C360.559 479.561 360.855 478.899 360.855 478.164H363.355C363.355 476.737 362.775 475.445 361.836 474.51L360.072 476.281C359.585 475.797 358.919 475.5 358.178 475.5V473Z" stroke="#FAF6ED" stroke-width="5" stroke-dasharray="0 9"/>
<path d="M3.00977 428.42C3.17112 428.513 3.48882 428.539 4.05293 428.265C4.59821 428 5.26012 427.506 5.99582 426.796C7.46214 425.381 9.13785 423.192 10.6611 420.56C12.1843 417.929 13.2479 415.387 13.7434 413.413C13.992 412.422 14.0902 411.603 14.0475 411C14.0033 410.376 13.8217 410.115 13.6604 410.022C13.499 409.929 13.1813 409.903 12.6172 410.176C12.0719 410.441 11.41 410.935 10.6743 411.645C9.20799 413.06 7.53227 415.25 6.00906 417.882C4.48585 420.513 3.42223 423.055 2.92675 425.029C2.67815 426.019 2.57994 426.838 2.62266 427.442C2.66685 428.066 2.84842 428.327 3.00977 428.42Z" stroke="#FAF6ED"/>
<rect y="0.70617" width="2.5797" height="8.14812" rx="1.28985" transform="matrix(0.708043 0.70617 -0.708043 0.70617 172.326 408.573)" stroke="#FAF6ED"/>
<rect y="0.70617" width="2.5797" height="8.14812" rx="1.28985" transform="matrix(0.708043 0.70617 -0.708043 0.70617 267.555 579.605)" stroke="#FAF6ED"/>
<ellipse cx="0.796541" cy="0.794434" rx="0.796541" ry="0.794434" transform="matrix(-1 0 0 1 212.501 376.097)" fill="#FAF6ED"/>
<ellipse cx="0.796541" cy="0.794434" rx="0.796541" ry="0.794434" transform="matrix(-1 0 0 1 114.444 541.052)" fill="#FAF6ED"/>
<path d="M35.0085 588.528C33.58 588.528 32.2866 589.105 31.3499 590.038L33.1141 591.809C32.6268 592.295 32.331 592.957 32.331 593.692H29.831C29.831 595.119 30.4115 596.411 31.3499 597.345L33.1141 595.574C33.6008 596.059 34.2669 596.355 35.0085 596.355V598.855C36.437 598.855 37.7304 598.278 38.6672 597.345L36.9029 595.574C37.3903 595.089 37.686 594.426 37.686 593.692H40.186C40.186 592.264 39.6055 590.973 38.6672 590.038L36.9029 591.809C36.4163 591.324 35.7501 591.028 35.0085 591.028V588.528Z" stroke="#FAF6ED" stroke-width="5" stroke-dasharray="0 9"/>
<ellipse cx="0.796541" cy="0.794434" rx="0.796541" ry="0.794434" transform="matrix(-1 0 0 1 35.8051 592.897)" fill="#FAF6ED"/>
<ellipse cx="0.796541" cy="0.794434" rx="0.796541" ry="0.794434" transform="matrix(-1 0 0 1 221.661 74.2122)" fill="#FAF6ED"/>
<ellipse cx="0.796541" cy="0.794434" rx="0.796541" ry="0.794434" transform="matrix(-1 0 0 1 320.163 645.133)" fill="#FAF6ED"/>
<ellipse cx="0.796541" cy="0.794434" rx="0.796541" ry="0.794434" transform="matrix(-1 0 0 1 114.925 82.5538)" fill="#FAF6ED"/>
<ellipse cx="0.796541" cy="0.794434" rx="0.796541" ry="0.794434" transform="matrix(-1 0 0 1 260.34 13.3464)" fill="#FAF6ED"/>
<ellipse cx="0.796015" cy="0.794961" rx="0.796015" ry="0.794961" transform="matrix(-0.866598 -0.499007 -0.500994 0.865451 247.044 160.912)" fill="#FAF6ED"/>
<path d="M112.5 241.185C112.5 242.114 113.256 242.869 114.19 242.869C115.125 242.869 115.881 242.114 115.881 241.185C115.881 240.256 115.125 239.5 114.19 239.5C113.256 239.5 112.5 240.256 112.5 241.185Z" stroke="#FAF6ED"/>
<ellipse cx="0.796541" cy="0.794434" rx="0.796541" ry="0.794434" transform="matrix(-1 0 0 1 269.497 329.849)" fill="#FAF6ED"/>
<rect width="0.208618" height="4.36939" transform="matrix(-1 0 0 1 157.046 318.898)" fill="#FAF6ED"/>
<rect width="0.208066" height="4.38098" transform="matrix(0 1 1 0 154.752 320.979)" fill="#FAF6ED"/>
<rect width="0.208342" height="4.37519" transform="matrix(-0.708043 0.70617 0.708043 0.70617 155.467 319.464)" fill="#FAF6ED"/>
<rect width="0.208342" height="4.37519" transform="matrix(0.708043 0.70617 -0.708043 0.70617 158.417 319.464)" fill="#FAF6ED"/>
<rect width="0.208618" height="4.36939" transform="matrix(-1 0 0 1 193.687 176.694)" fill="#FAF6ED"/>
<rect width="0.208066" height="4.38098" transform="matrix(0 1 1 0 191.393 178.775)" fill="#FAF6ED"/>
<rect width="0.208342" height="4.37519" transform="matrix(-0.708043 0.70617 0.708043 0.70617 192.108 177.26)" fill="#FAF6ED"/>
<rect width="0.208342" height="4.37519" transform="matrix(0.708043 0.70617 -0.708043 0.70617 195.058 177.26)" fill="#FAF6ED"/>
<path fill-rule="evenodd" clip-rule="evenodd" d="M113.339 691.362L114.864 709.413L114.109 691.313L117.891 709.031L114.868 691.169L120.846 708.275L115.602 690.931L123.683 707.154L116.3 690.603L126.356 705.688L116.952 690.191L128.825 703.9L117.547 689.7L131.049 701.817L118.076 689.139L132.993 699.472L118.529 688.516L134.628 696.903L118.901 687.841L135.927 694.15L119.185 687.125L136.87 691.256L119.377 686.379L137.442 688.267L119.474 685.615L137.633 685.23L119.474 684.845L137.442 682.193L119.377 684.081L136.87 679.204L119.185 683.336L135.927 676.31L118.901 682.62L134.628 673.557L118.529 681.945L132.993 670.988L118.076 681.322L131.049 668.643L117.547 680.761L128.825 666.561L116.952 680.27L126.356 664.772L116.3 679.857L123.683 663.306L115.602 679.529L120.846 662.186L114.868 679.291L117.891 661.429L114.109 679.147L114.864 661.048L113.339 679.099L111.813 661.048L112.568 679.147L108.786 661.429L111.81 679.291L105.831 662.186L111.076 679.529L102.995 663.306L110.377 679.857L100.321 664.772L109.725 680.27L97.8528 666.561L109.13 680.761L95.6287 668.643L108.602 681.322L93.684 670.988L108.148 681.945L92.0492 673.557L107.776 682.62L90.7502 676.31L107.492 683.336L89.8074 679.204L107.3 684.081L89.2357 682.193L107.203 684.845L89.0442 685.23L107.203 685.615L89.2357 688.267L107.3 686.379L89.8074 691.256L107.492 687.125L90.7502 694.15L107.776 687.841L92.0492 696.903L108.148 688.516L93.684 699.472L108.602 689.139L95.6287 701.817L109.13 689.7L97.8528 703.9L109.725 690.191L100.321 705.688L110.377 690.603L102.995 707.154L111.076 690.931L105.831 708.275L111.81 691.169L108.786 709.031L112.568 691.313L111.813 709.413L113.339 691.362Z" fill="#FAF6ED"/>
</g>
<g opacity="0.2">
<path d="M44.1775 1064C45.606 1064 46.8994 1064.58 47.8362 1065.51L46.0719 1067.28C46.5593 1067.77 46.855 1068.43 46.855 1069.16H49.355C49.355 1070.59 48.7745 1071.88 47.8362 1072.82L46.0719 1071.05C45.5853 1071.53 44.9191 1071.83 44.1775 1071.83V1074.33C42.749 1074.33 41.4556 1073.75 40.5189 1072.82L42.2831 1071.05C41.7958 1070.56 41.5 1069.9 41.5 1069.16H39C39 1067.74 39.5805 1066.44 40.5189 1065.51L42.2831 1067.28C42.7698 1066.8 43.4359 1066.5 44.1775 1066.5V1064Z" stroke="#FAF6ED" stroke-width="5" stroke-dasharray="0 9"/>
<ellipse cx="44.1775" cy="1069.16" rx="0.796541" ry="0.794434" fill="#FAF6ED"/>
<path d="M347.126 923.521C348.554 923.521 349.848 924.098 350.784 925.031L349.02 926.803C349.507 927.288 349.803 927.95 349.803 928.685H352.303C352.303 930.112 351.723 931.404 350.784 932.339L349.02 930.568C348.533 931.052 347.867 931.349 347.126 931.349V933.849C345.697 933.849 344.404 933.272 343.467 932.339L345.231 930.568C344.744 930.082 344.448 929.42 344.448 928.685H341.948C341.948 927.258 342.529 925.966 343.467 925.031L345.231 926.803C345.718 926.318 346.384 926.021 347.126 926.021V923.521Z" stroke="#FAF6ED" stroke-width="5" stroke-dasharray="0 9"/>
<ellipse cx="347.126" cy="928.685" rx="0.796541" ry="0.794434" fill="#FAF6ED"/>
<path fill-rule="evenodd" clip-rule="evenodd" d="M143.355 1162.78L135.511 1159.49L137.264 1167.8L143.355 1162.78Z" stroke="#FAF6ED" stroke-linecap="round" stroke-linejoin="round"/>
<path fill-rule="evenodd" clip-rule="evenodd" d="M119.905 1551.85L118.343 1548.15L122.289 1548.98L119.905 1551.85Z" stroke="#FAF6ED" stroke-linecap="round" stroke-linejoin="round"/>
<ellipse cx="204.762" cy="877.589" rx="1.59308" ry="1.58887" fill="#FAF6ED"/>
<ellipse cx="178.099" cy="1384.56" rx="1.59308" ry="1.58887" fill="#FAF6ED"/>
<ellipse cx="173.216" cy="1487.42" rx="1.59308" ry="1.58887" fill="#FAF6ED"/>
<ellipse cx="289.2" cy="1690.1" rx="1.59308" ry="1.58887" fill="#FAF6ED"/>
<ellipse cx="300.798" cy="987.103" rx="1.59308" ry="1.58887" fill="#FAF6ED"/>
<path d="M22.3286 930.001C22.4213 930.162 22.448 930.478 22.1731 931.041C21.9076 931.585 21.4119 932.245 20.7 932.979C19.2812 934.442 17.0854 936.113 14.447 937.632C11.8086 939.152 9.25938 940.212 7.27996 940.707C6.28681 940.955 5.46565 941.053 4.86054 941.01C4.23426 940.966 3.97282 940.785 3.88014 940.625C3.78747 940.464 3.76082 940.148 4.03566 939.585C4.30121 939.041 4.79688 938.381 5.50877 937.647C6.92762 936.184 9.12341 934.513 11.7618 932.994C14.4002 931.475 16.9494 930.414 18.9288 929.919C19.922 929.671 20.7431 929.573 21.3482 929.616C21.9745 929.66 22.236 929.841 22.3286 930.001Z" stroke="#FAF6ED"/>
<path d="M65.0371 1664.23C65.5693 1665.09 65.9568 1666.13 66.1475 1667.27L65.6544 1667.35C65.7368 1667.84 65.7805 1668.35 65.7805 1668.88H66.2805C66.2805 1669.44 66.2345 1669.98 66.1475 1670.5L65.6544 1670.42C65.4736 1671.5 65.1074 1672.47 64.6121 1673.27L65.0371 1673.53C64.4191 1674.53 63.6061 1675.29 62.6797 1675.7L62.478 1675.24C62.0409 1675.43 61.5796 1675.53 61.103 1675.53V1676.03C60.5532 1676.03 60.0234 1675.91 59.5262 1675.7L59.728 1675.24C58.9117 1674.88 58.1699 1674.2 57.5938 1673.27L57.1689 1673.53C56.6367 1672.67 56.2491 1671.64 56.0585 1670.5L56.5516 1670.42C56.4692 1669.93 56.4255 1669.41 56.4255 1668.88H55.9255C55.9255 1668.33 55.9715 1667.79 56.0585 1667.27L56.5516 1667.35C56.7324 1666.27 57.0985 1665.3 57.5938 1664.5L57.1689 1664.23C57.7869 1663.24 58.5999 1662.48 59.5262 1662.07L59.728 1662.53C60.165 1662.34 60.6263 1662.23 61.103 1662.23V1661.73C61.6528 1661.73 62.1826 1661.85 62.6797 1662.07L62.478 1662.53C63.2943 1662.89 64.036 1663.57 64.6121 1664.5L65.0371 1664.23Z" stroke="#FAF6ED" stroke-dasharray="0 3"/>
<path d="M5.17752 1349C6.60602 1349 7.8994 1349.58 8.83615 1350.51L7.07189 1352.28C7.55927 1352.77 7.85504 1353.43 7.85504 1354.16H10.355C10.355 1355.59 9.77452 1356.88 8.83615 1357.82L7.07189 1356.05C6.58526 1356.53 5.91913 1356.83 5.17752 1356.83V1359.33C3.74902 1359.33 2.45564 1358.75 1.51888 1357.82L3.28314 1356.05C2.79577 1355.56 2.5 1354.9 2.5 1354.16H0C0 1352.74 0.580513 1351.44 1.51888 1350.51L3.28314 1352.28C3.76977 1351.8 4.43591 1351.5 5.17752 1351.5V1349Z" stroke="#FAF6ED" stroke-width="5" stroke-dasharray="0 9"/>
<path d="M360.345 1304.42C360.184 1304.51 359.866 1304.54 359.302 1304.27C358.757 1304 358.095 1303.51 357.359 1302.8C355.893 1301.38 354.217 1299.19 352.694 1296.56C351.171 1293.93 350.107 1291.39 349.612 1289.41C349.363 1288.42 349.265 1287.6 349.308 1287C349.352 1286.38 349.533 1286.11 349.695 1286.02C349.856 1285.93 350.174 1285.9 350.738 1286.18C351.283 1286.44 351.945 1286.94 352.681 1287.65C354.147 1289.06 355.823 1291.25 357.346 1293.88C358.869 1296.51 359.933 1299.06 360.428 1301.03C360.677 1302.02 360.775 1302.84 360.732 1303.44C360.688 1304.07 360.507 1304.33 360.345 1304.42Z" stroke="#FAF6ED"/>
<rect y="0.70617" width="2.5797" height="8.14812" rx="1.28985" transform="matrix(-0.708043 0.70617 0.708043 0.70617 191.029 1284.57)" stroke="#FAF6ED"/>
<rect y="0.70617" width="2.5797" height="8.14812" rx="1.28985" transform="matrix(-0.708043 0.70617 0.708043 0.70617 95.7999 1455.61)" stroke="#FAF6ED"/>
<ellipse cx="151.65" cy="1252.89" rx="0.796541" ry="0.794434" fill="#FAF6ED"/>
<ellipse cx="249.707" cy="1417.85" rx="0.796541" ry="0.794434" fill="#FAF6ED"/>
<path d="M328.347 1464.53C329.775 1464.53 331.068 1465.1 332.005 1466.04L330.241 1467.81C330.728 1468.29 331.024 1468.96 331.024 1469.69H333.524C333.524 1471.12 332.944 1472.41 332.005 1473.35L330.241 1471.57C329.754 1472.06 329.088 1472.36 328.347 1472.36V1474.86C326.918 1474.86 325.625 1474.28 324.688 1473.35L326.452 1471.57C325.965 1471.09 325.669 1470.43 325.669 1469.69H323.169C323.169 1468.26 323.75 1466.97 324.688 1466.04L326.452 1467.81C326.939 1467.32 327.605 1467.03 328.347 1467.03V1464.53Z" stroke="#FAF6ED" stroke-width="5" stroke-dasharray="0 9"/>
<ellipse cx="328.347" cy="1469.69" rx="0.796541" ry="0.794434" fill="#FAF6ED"/>
<ellipse cx="142.49" cy="951.007" rx="0.796541" ry="0.794434" fill="#FAF6ED"/>
<ellipse cx="43.9884" cy="1521.93" rx="0.796541" ry="0.794434" fill="#FAF6ED"/>
<ellipse cx="249.227" cy="959.348" rx="0.796541" ry="0.794434" fill="#FAF6ED"/>
<ellipse cx="103.812" cy="890.141" rx="0.796541" ry="0.794434" fill="#FAF6ED"/>
<ellipse cx="0.796015" cy="0.794961" rx="0.796015" ry="0.794961" transform="matrix(0.866598 -0.499007 0.500994 0.865451 116.311 1036.91)" fill="#FAF6ED"/>
<path d="M250.855 1117.18C250.855 1118.11 250.099 1118.87 249.165 1118.87C248.23 1118.87 247.474 1118.11 247.474 1117.18C247.474 1116.26 248.23 1115.5 249.165 1115.5C250.099 1115.5 250.855 1116.26 250.855 1117.18Z" stroke="#FAF6ED"/>
<ellipse cx="94.6551" cy="1206.64" rx="0.796541" ry="0.794434" fill="#FAF6ED"/>
<rect x="206.309" y="1194.9" width="0.208618" height="4.36939" fill="#FAF6ED"/>
<rect x="208.604" y="1196.98" width="0.208066" height="4.38098" transform="rotate(90 208.604 1196.98)" fill="#FAF6ED"/>
<rect width="0.208342" height="4.37519" transform="matrix(0.708043 0.70617 -0.708043 0.70617 207.888 1195.46)" fill="#FAF6ED"/>
<rect width="0.208342" height="4.37519" transform="matrix(-0.708043 0.70617 0.708043 0.70617 204.938 1195.46)" fill="#FAF6ED"/>
<rect x="169.668" y="1052.69" width="0.208618" height="4.36939" fill="#FAF6ED"/>
<rect x="171.962" y="1054.77" width="0.208066" height="4.38098" transform="rotate(90 171.962 1054.77)" fill="#FAF6ED"/>
<rect width="0.208342" height="4.37519" transform="matrix(0.708043 0.70617 -0.708043 0.70617 171.247 1053.26)" fill="#FAF6ED"/>
<rect width="0.208342" height="4.37519" transform="matrix(-0.708043 0.70617 0.708043 0.70617 168.297 1053.26)" fill="#FAF6ED"/>
<path fill-rule="evenodd" clip-rule="evenodd" d="M250.016 1567.36L248.491 1585.41L249.246 1567.31L245.464 1585.03L248.488 1567.17L242.509 1584.27L247.753 1566.93L239.672 1583.15L247.055 1566.6L236.999 1581.69L246.403 1566.19L234.531 1579.9L245.808 1565.7L232.306 1577.82L245.28 1565.14L230.362 1575.47L244.826 1564.52L228.727 1572.9L244.454 1563.84L227.428 1570.15L244.17 1563.12L226.485 1567.26L243.978 1562.38L225.913 1564.27L243.881 1561.62L225.722 1561.23L243.881 1560.85L225.913 1558.19L243.978 1560.08L226.485 1555.2L244.17 1559.34L227.428 1552.31L244.454 1558.62L228.727 1549.56L244.826 1557.94L230.362 1546.99L245.28 1557.32L232.306 1544.64L245.808 1556.76L234.531 1542.56L246.403 1556.27L236.999 1540.77L247.055 1555.86L239.672 1539.31L247.753 1555.53L242.509 1538.19L248.488 1555.29L245.464 1537.43L249.246 1555.15L248.491 1537.05L250.016 1555.1L251.542 1537.05L250.787 1555.15L254.569 1537.43L251.545 1555.29L257.524 1538.19L252.28 1555.53L260.361 1539.31L252.978 1555.86L263.034 1540.77L253.63 1556.27L265.502 1542.56L254.225 1556.76L267.726 1544.64L254.753 1557.32L269.671 1546.99L255.207 1557.94L271.306 1549.56L255.579 1558.62L272.605 1552.31L255.863 1559.34L273.548 1555.2L256.055 1560.08L274.119 1558.19L256.152 1560.85L274.311 1561.23L256.152 1561.62L274.119 1564.27L256.055 1562.38L273.548 1567.26L255.863 1563.12L272.605 1570.15L255.579 1563.84L271.306 1572.9L255.207 1564.52L269.671 1575.47L254.753 1565.14L267.726 1577.82L254.225 1565.7L265.502 1579.9L253.63 1566.19L263.034 1581.69L252.978 1566.6L260.361 1583.15L252.28 1566.93L257.524 1584.27L251.545 1567.17L254.569 1585.03L250.787 1567.31L251.542 1585.41L250.016 1567.36Z" fill="#FAF6ED"/>
</g>
<g opacity="0.2">
<path d="M44.1775 1917C45.606 1917 46.8994 1917.58 47.8362 1918.51L46.0719 1920.28C46.5593 1920.77 46.855 1921.43 46.855 1922.16H49.355C49.355 1923.59 48.7745 1924.88 47.8362 1925.82L46.0719 1924.05C45.5853 1924.53 44.9191 1924.83 44.1775 1924.83V1927.33C42.749 1927.33 41.4556 1926.75 40.5189 1925.82L42.2831 1924.05C41.7958 1923.56 41.5 1922.9 41.5 1922.16H39C39 1920.74 39.5805 1919.44 40.5189 1918.51L42.2831 1920.28C42.7698 1919.8 43.4359 1919.5 44.1775 1919.5V1917Z" stroke="#FAF6ED" stroke-width="5" stroke-dasharray="0 9"/>
<ellipse cx="44.1775" cy="1922.16" rx="0.796541" ry="0.794434" fill="#FAF6ED"/>
<path d="M347.126 1776.52C348.554 1776.52 349.848 1777.1 350.784 1778.03L349.02 1779.8C349.507 1780.29 349.803 1780.95 349.803 1781.69H352.303C352.303 1783.11 351.723 1784.4 350.784 1785.34L349.02 1783.57C348.533 1784.05 347.867 1784.35 347.126 1784.35V1786.85C345.697 1786.85 344.404 1786.27 343.467 1785.34L345.231 1783.57C344.744 1783.08 344.448 1782.42 344.448 1781.69H341.948C341.948 1780.26 342.529 1778.97 343.467 1778.03L345.231 1779.8C345.718 1779.32 346.384 1779.02 347.126 1779.02V1776.52Z" stroke="#FAF6ED" stroke-width="5" stroke-dasharray="0 9"/>
<ellipse cx="347.126" cy="1781.69" rx="0.796541" ry="0.794434" fill="#FAF6ED"/>
<path fill-rule="evenodd" clip-rule="evenodd" d="M143.355 2015.78L135.511 2012.49L137.264 2020.8L143.355 2015.78Z" stroke="#FAF6ED" stroke-linecap="round" stroke-linejoin="round"/>
<ellipse cx="204.762" cy="1730.59" rx="1.59308" ry="1.58887" fill="#FAF6ED"/>
<ellipse cx="178.099" cy="2237.56" rx="1.59308" ry="1.58887" fill="#FAF6ED"/>
<ellipse cx="300.798" cy="1840.1" rx="1.59308" ry="1.58887" fill="#FAF6ED"/>
<path d="M22.3286 1783C22.4213 1783.16 22.448 1783.48 22.1731 1784.04C21.9076 1784.58 21.4119 1785.25 20.7 1785.98C19.2812 1787.44 17.0854 1789.11 14.447 1790.63C11.8086 1792.15 9.25938 1793.21 7.27996 1793.71C6.28681 1793.95 5.46565 1794.05 4.86054 1794.01C4.23426 1793.97 3.97282 1793.78 3.88014 1793.62C3.78747 1793.46 3.76082 1793.15 4.03566 1792.59C4.30121 1792.04 4.79688 1791.38 5.50877 1790.65C6.92762 1789.18 9.12341 1787.51 11.7618 1785.99C14.4002 1784.47 16.9494 1783.41 18.9288 1782.92C19.922 1782.67 20.7431 1782.57 21.3482 1782.62C21.9745 1782.66 22.236 1782.84 22.3286 1783Z" stroke="#FAF6ED"/>
<path d="M5.17752 2202C6.60602 2202 7.8994 2202.58 8.83615 2203.51L7.07189 2205.28C7.55927 2205.77 7.85504 2206.43 7.85504 2207.16H10.355C10.355 2208.59 9.77452 2209.88 8.83615 2210.82L7.07189 2209.05C6.58526 2209.53 5.91913 2209.83 5.17752 2209.83V2212.33C3.74902 2212.33 2.45564 2211.75 1.51888 2210.82L3.28314 2209.05C2.79577 2208.56 2.5 2207.9 2.5 2207.16H0C0 2205.74 0.580513 2204.44 1.51888 2203.51L3.28314 2205.28C3.76977 2204.8 4.43591 2204.5 5.17752 2204.5V2202Z" stroke="#FAF6ED" stroke-width="5" stroke-dasharray="0 9"/>
<path d="M360.345 2157.42C360.184 2157.51 359.866 2157.54 359.302 2157.27C358.757 2157 358.095 2156.51 357.359 2155.8C355.893 2154.38 354.217 2152.19 352.694 2149.56C351.171 2146.93 350.107 2144.39 349.612 2142.41C349.363 2141.42 349.265 2140.6 349.308 2140C349.352 2139.38 349.533 2139.11 349.695 2139.02C349.856 2138.93 350.174 2138.9 350.738 2139.18C351.283 2139.44 351.945 2139.94 352.681 2140.65C354.147 2142.06 355.823 2144.25 357.346 2146.88C358.869 2149.51 359.933 2152.06 360.428 2154.03C360.677 2155.02 360.775 2155.84 360.732 2156.44C360.688 2157.07 360.507 2157.33 360.345 2157.42Z" stroke="#FAF6ED"/>
<rect y="0.70617" width="2.5797" height="8.14812" rx="1.28985" transform="matrix(-0.708043 0.70617 0.708043 0.70617 191.029 2137.57)" stroke="#FAF6ED"/>
<ellipse cx="151.65" cy="2105.89" rx="0.796541" ry="0.794434" fill="#FAF6ED"/>
<ellipse cx="142.49" cy="1804.01" rx="0.796541" ry="0.794434" fill="#FAF6ED"/>
<ellipse cx="249.227" cy="1812.35" rx="0.796541" ry="0.794434" fill="#FAF6ED"/>
<ellipse cx="103.812" cy="1743.14" rx="0.796541" ry="0.794434" fill="#FAF6ED"/>
<ellipse cx="0.796015" cy="0.794961" rx="0.796015" ry="0.794961" transform="matrix(0.866598 -0.499007 0.500994 0.865451 116.311 1889.91)" fill="#FAF6ED"/>
<path d="M250.855 1970.18C250.855 1971.11 250.099 1971.87 249.165 1971.87C248.23 1971.87 247.474 1971.11 247.474 1970.18C247.474 1969.26 248.23 1968.5 249.165 1968.5C250.099 1968.5 250.855 1969.26 250.855 1970.18Z" stroke="#FAF6ED"/>
<ellipse cx="94.6551" cy="2059.64" rx="0.796541" ry="0.794434" fill="#FAF6ED"/>
<rect x="206.309" y="2047.9" width="0.208618" height="4.36939" fill="#FAF6ED"/>
<rect x="208.604" y="2049.98" width="0.208066" height="4.38098" transform="rotate(90 208.604 2049.98)" fill="#FAF6ED"/>
<rect width="0.208342" height="4.37519" transform="matrix(0.708043 0.70617 -0.708043 0.70617 207.888 2048.46)" fill="#FAF6ED"/>
<rect width="0.208342" height="4.37519" transform="matrix(-0.708043 0.70617 0.708043 0.70617 204.938 2048.46)" fill="#FAF6ED"/>
<rect x="169.668" y="1905.69" width="0.208618" height="4.36939" fill="#FAF6ED"/>
<rect x="171.962" y="1907.77" width="0.208066" height="4.38098" transform="rotate(90 171.962 1907.77)" fill="#FAF6ED"/>
<rect width="0.208342" height="4.37519" transform="matrix(0.708043 0.70617 -0.708043 0.70617 171.247 1906.26)" fill="#FAF6ED"/>
<rect width="0.208342" height="4.37519" transform="matrix(-0.708043 0.70617 0.708043 0.70617 168.297 1906.26)" fill="#FAF6ED"/>
</g>
</svg>
