<svg width="2980" height="2980" viewBox="0 0 2980 2980" fill="none" xmlns="http://www.w3.org/2000/svg">
<g clip-path="url(#clip0_2363_4818)">
<path d="M1490 2980V1788" stroke="white" stroke-miterlimit="10"/>
<path d="M1396.44 2977.06L1471.29 1787.41" stroke="white" stroke-miterlimit="10"/>
<path d="M1303.25 2968.25L1452.65 1785.65" stroke="white" stroke-miterlimit="10"/>
<path d="M1210.8 2953.61L1434.16 1782.72" stroke="white" stroke-miterlimit="10"/>
<path d="M1119.45 2933.19L1415.89 1778.64" stroke="white" stroke-miterlimit="10"/>
<path d="M1029.57 2907.07L1397.91 1773.41" stroke="white" stroke-miterlimit="10"/>
<path d="M941.493 2875.37L1380.3 1767.07" stroke="white" stroke-miterlimit="10"/>
<path d="M855.589 2838.19L1363.12 1759.64" stroke="white" stroke-miterlimit="10"/>
<path d="M772.189 2795.7L1346.44 1751.14" stroke="white" stroke-miterlimit="10"/>
<path d="M691.618 2748.05L1330.32 1741.61" stroke="white" stroke-miterlimit="10"/>
<path d="M614.201 2695.44L1314.84 1731.09" stroke="white" stroke-miterlimit="10"/>
<path d="M540.239 2638.06L1300.05 1719.61" stroke="white" stroke-miterlimit="10"/>
<path d="M470.026 2576.16L1286.01 1707.23" stroke="white" stroke-miterlimit="10"/>
<path d="M403.836 2509.98L1272.77 1694" stroke="white" stroke-miterlimit="10"/>
<path d="M341.936 2439.76L1260.39 1679.95" stroke="white" stroke-miterlimit="10"/>
<path d="M284.563 2365.8L1248.91 1665.16" stroke="white" stroke-miterlimit="10"/>
<path d="M231.95 2288.38L1238.39 1649.68" stroke="white" stroke-miterlimit="10"/>
<path d="M184.303 2207.81L1228.86 1633.56" stroke="white" stroke-miterlimit="10"/>
<path d="M141.809 2124.41L1220.36 1616.88" stroke="white" stroke-miterlimit="10"/>
<path d="M104.634 2038.5L1212.93 1599.7" stroke="white" stroke-miterlimit="10"/>
<path d="M72.9268 1950.43L1206.59 1582.09" stroke="white" stroke-miterlimit="10"/>
<path d="M46.8105 1860.55L1201.36 1564.11" stroke="white" stroke-miterlimit="10"/>
<path d="M26.3906 1769.2L1197.28 1545.84" stroke="white" stroke-miterlimit="10"/>
<path d="M11.75 1676.75L1194.35 1527.35" stroke="white" stroke-miterlimit="10"/>
<path d="M2.93945 1583.56L1192.59 1508.71" stroke="white" stroke-miterlimit="10"/>
<path d="M0 1490H1192" stroke="white" stroke-miterlimit="10"/>
<path d="M2.93945 1396.44L1192.59 1471.29" stroke="white" stroke-miterlimit="10"/>
<path d="M11.75 1303.25L1194.35 1452.65" stroke="white" stroke-miterlimit="10"/>
<path d="M26.3906 1210.8L1197.28 1434.16" stroke="white" stroke-miterlimit="10"/>
<path d="M46.8105 1119.45L1201.36 1415.89" stroke="white" stroke-miterlimit="10"/>
<path d="M72.9268 1029.56L1206.59 1397.91" stroke="white" stroke-miterlimit="10"/>
<path d="M104.634 941.494L1212.93 1380.3" stroke="white" stroke-miterlimit="10"/>
<path d="M141.809 855.589L1220.36 1363.12" stroke="white" stroke-miterlimit="10"/>
<path d="M184.303 772.189L1228.86 1346.44" stroke="white" stroke-miterlimit="10"/>
<path d="M231.953 691.618L1238.39 1330.32" stroke="white" stroke-miterlimit="10"/>
<path d="M284.563 614.201L1248.91 1314.84" stroke="white" stroke-miterlimit="10"/>
<path d="M341.936 540.236L1260.39 1300.05" stroke="white" stroke-miterlimit="10"/>
<path d="M403.836 470.024L1272.77 1286.01" stroke="white" stroke-miterlimit="10"/>
<path d="M470.026 403.836L1286.01 1272.77" stroke="white" stroke-miterlimit="10"/>
<path d="M540.239 341.934L1300.05 1260.39" stroke="white" stroke-miterlimit="10"/>
<path d="M614.201 284.566L1314.84 1248.92" stroke="white" stroke-miterlimit="10"/>
<path d="M691.618 231.952L1330.32 1238.39" stroke="white" stroke-miterlimit="10"/>
<path d="M772.187 184.302L1346.44 1228.86" stroke="white" stroke-miterlimit="10"/>
<path d="M855.589 141.809L1363.12 1220.36" stroke="white" stroke-miterlimit="10"/>
<path d="M941.493 104.633L1380.3 1212.93" stroke="white" stroke-miterlimit="10"/>
<path d="M1029.57 72.9268L1397.91 1206.59" stroke="white" stroke-miterlimit="10"/>
<path d="M1119.45 46.8105L1415.89 1201.36" stroke="white" stroke-miterlimit="10"/>
<path d="M1210.8 26.3906L1434.16 1197.28" stroke="white" stroke-miterlimit="10"/>
<path d="M1303.25 11.749L1452.65 1194.35" stroke="white" stroke-miterlimit="10"/>
<path d="M1396.44 2.93945L1471.29 1192.59" stroke="white" stroke-miterlimit="10"/>
<path d="M1490 0V1192" stroke="white" stroke-miterlimit="10"/>
<path d="M1583.56 2.93945L1508.71 1192.59" stroke="white" stroke-miterlimit="10"/>
<path d="M1676.75 11.749L1527.35 1194.35" stroke="white" stroke-miterlimit="10"/>
<path d="M1769.2 26.3906L1545.84 1197.28" stroke="white" stroke-miterlimit="10"/>
<path d="M1860.55 46.811L1564.11 1201.36" stroke="white" stroke-miterlimit="10"/>
<path d="M1950.44 72.9268L1582.09 1206.59" stroke="white" stroke-miterlimit="10"/>
<path d="M2038.51 104.634L1599.7 1212.93" stroke="white" stroke-miterlimit="10"/>
<path d="M2124.41 141.808L1616.88 1220.36" stroke="white" stroke-miterlimit="10"/>
<path d="M2207.81 184.302L1633.56 1228.86" stroke="white" stroke-miterlimit="10"/>
<path d="M2288.38 231.952L1649.68 1238.39" stroke="white" stroke-miterlimit="10"/>
<path d="M2365.8 284.566L1665.16 1248.91" stroke="white" stroke-miterlimit="10"/>
<path d="M2439.76 341.937L1679.95 1260.39" stroke="white" stroke-miterlimit="10"/>
<path d="M2509.98 403.839L1693.99 1272.77" stroke="white" stroke-miterlimit="10"/>
<path d="M2576.16 470.026L1707.23 1286.01" stroke="white" stroke-miterlimit="10"/>
<path d="M2638.06 540.239L1719.61 1300.05" stroke="white" stroke-miterlimit="10"/>
<path d="M2695.44 614.201L1731.09 1314.84" stroke="white" stroke-miterlimit="10"/>
<path d="M2748.05 691.618L1741.61 1330.32" stroke="white" stroke-miterlimit="10"/>
<path d="M2795.7 772.186L1751.14 1346.44" stroke="white" stroke-miterlimit="10"/>
<path d="M2838.19 855.589L1759.64 1363.12" stroke="white" stroke-miterlimit="10"/>
<path d="M2875.37 941.494L1767.07 1380.3" stroke="white" stroke-miterlimit="10"/>
<path d="M2907.08 1029.57L1773.41 1397.91" stroke="white" stroke-miterlimit="10"/>
<path d="M2933.19 1119.45L1778.64 1415.89" stroke="white" stroke-miterlimit="10"/>
<path d="M2953.61 1210.8L1782.72 1434.16" stroke="white" stroke-miterlimit="10"/>
<path d="M2968.25 1303.25L1785.65 1452.65" stroke="white" stroke-miterlimit="10"/>
<path d="M2977.06 1396.44L1787.41 1471.29" stroke="white" stroke-miterlimit="10"/>
<path d="M2980 1490H1788" stroke="white" stroke-miterlimit="10"/>
<path d="M2977.06 1583.56L1787.41 1508.71" stroke="white" stroke-miterlimit="10"/>
<path d="M2968.25 1676.75L1785.65 1527.35" stroke="white" stroke-miterlimit="10"/>
<path d="M2953.61 1769.2L1782.72 1545.84" stroke="white" stroke-miterlimit="10"/>
<path d="M2933.19 1860.55L1778.64 1564.11" stroke="white" stroke-miterlimit="10"/>
<path d="M2907.07 1950.44L1773.41 1582.09" stroke="white" stroke-miterlimit="10"/>
<path d="M2875.37 2038.51L1767.07 1599.7" stroke="white" stroke-miterlimit="10"/>
<path d="M2838.2 2124.41L1759.64 1616.88" stroke="white" stroke-miterlimit="10"/>
<path d="M2795.7 2207.81L1751.14 1633.56" stroke="white" stroke-miterlimit="10"/>
<path d="M2748.05 2288.38L1741.61 1649.68" stroke="white" stroke-miterlimit="10"/>
<path d="M2695.44 2365.8L1731.09 1665.16" stroke="white" stroke-miterlimit="10"/>
<path d="M2638.07 2439.76L1719.61 1679.95" stroke="white" stroke-miterlimit="10"/>
<path d="M2576.16 2509.98L1707.23 1693.99" stroke="white" stroke-miterlimit="10"/>
<path d="M2509.98 2576.16L1694 1707.23" stroke="white" stroke-miterlimit="10"/>
<path d="M2439.76 2638.07L1679.95 1719.61" stroke="white" stroke-miterlimit="10"/>
<path d="M2365.8 2695.44L1665.16 1731.09" stroke="white" stroke-miterlimit="10"/>
<path d="M2288.38 2748.05L1649.68 1741.61" stroke="white" stroke-miterlimit="10"/>
<path d="M2207.82 2795.7L1633.56 1751.14" stroke="white" stroke-miterlimit="10"/>
<path d="M2124.41 2838.19L1616.88 1759.64" stroke="white" stroke-miterlimit="10"/>
<path d="M2038.5 2875.37L1599.7 1767.07" stroke="white" stroke-miterlimit="10"/>
<path d="M1950.43 2907.08L1582.09 1773.41" stroke="white" stroke-miterlimit="10"/>
<path d="M1860.55 2933.19L1564.11 1778.64" stroke="white" stroke-miterlimit="10"/>
<path d="M1769.2 2953.61L1545.84 1782.72" stroke="white" stroke-miterlimit="10"/>
<path d="M1676.74 2968.25L1527.35 1785.65" stroke="white" stroke-miterlimit="10"/>
<path d="M1583.56 2977.06L1508.71 1787.41" stroke="white" stroke-miterlimit="10"/>
</g>
<defs>
<clipPath id="clip0_2363_4818">
<rect width="2980" height="2980" fill="white"/>
</clipPath>
</defs>
</svg>
