<svg width="98" height="20" viewBox="0 0 98 20" fill="none" xmlns="http://www.w3.org/2000/svg">
<g id="logo">
<path id="Path" d="M31.6443 0.625H27.8455L16.6048 18.78V2.00085V0.625H15.7951H11.9967L0 20H5.46093L15.7951 3.30958V20H15.8497H16.6048H21.3102L31.6443 3.30958V20H32.4545V2.00085V0.625H31.6443Z" fill="#FAF6ED"/>
<path id="Shape" fill-rule="evenodd" clip-rule="evenodd" d="M35 10.0002C35 4.47744 39.8436 0 45.8184 0C51.7933 0 56.6364 4.47744 56.6364 10.0002C56.6364 15.523 51.7933 20 45.8184 20C39.8436 20 35 15.523 35 10.0002ZM40.8327 18.1055C43.4663 19.7135 47.8334 17.388 50.5867 12.9115C53.3399 8.43506 53.4372 3.50241 50.8037 1.89447C48.1701 0.286997 43.8034 2.61243 41.0502 7.08893C38.2965 11.5654 38.1996 16.4976 40.8327 18.1055Z" fill="#FAF6ED"/>
<path id="Shape_2" fill-rule="evenodd" clip-rule="evenodd" d="M76.3633 10.0002C76.3633 4.47744 81.2069 0 87.1817 0C93.1565 0 97.9996 4.47744 97.9996 10.0002C97.9996 15.523 93.1565 20 87.1817 20C81.2069 20 76.3633 15.523 76.3633 10.0002ZM82.196 18.1055C84.8295 19.7135 89.1967 17.388 91.9499 12.9115C94.7032 8.43506 94.8005 3.50241 92.1669 1.89447C89.5334 0.286997 85.1667 2.61243 82.4135 7.08893C79.6597 11.5654 79.5629 16.4976 82.196 18.1055Z" fill="#FAF6ED"/>
<path id="Path_2" d="M65.8284 0.625L62.9462 5.15395H73.0028V9.54023C73.0081 9.91631 72.9288 10.289 72.7703 10.6328C71.4457 13.406 68.9997 15.273 66.1891 15.273C63.2045 15.273 60.6313 13.1686 59.3749 10.109H58.5751C58.5664 10.2822 58.5459 10.4512 58.5459 10.6272C58.5459 15.8033 61.9681 20 66.1891 20C70.3238 20 73.6831 15.9699 73.8186 10.9393V0.625H65.8284V0.625Z" fill="#FAF6ED"/>
</g>
</svg>
