<svg width="205" height="539" viewBox="0 0 205 539" fill="none" xmlns="http://www.w3.org/2000/svg">
<path d="M101.498 364.956L101.498 385.85L198.055 447.673L108.816 447.673L101.498 447.673L101.498 452.127L101.498 473.018L204.544 539L204.544 508.965L115.776 452.127L204.544 452.127L204.544 451.827L204.544 447.673L204.544 421.794L115.776 364.956L204.544 364.956L204.544 360.5L108.816 360.5L101.498 360.5L101.498 364.956Z" fill="#FAF6ED"/>
<path fill-rule="evenodd" clip-rule="evenodd" d="M151.36 346.5C121.987 346.5 98.1742 319.86 98.1742 286.999C98.1742 254.137 121.987 227.5 151.36 227.5C180.733 227.5 204.544 254.137 204.544 286.999C204.544 319.86 180.733 346.5 151.36 346.5ZM194.468 314.42C203.02 299.936 190.652 275.916 166.844 260.773C143.036 245.631 116.802 245.095 108.25 259.58C99.7006 274.064 112.068 298.081 135.877 313.224C159.685 328.369 185.916 328.902 194.468 314.42Z" fill="#FAF6ED"/>
<path fill-rule="evenodd" clip-rule="evenodd" d="M151.36 119C121.987 119 98.1742 92.3603 98.1742 59.4987C98.1742 26.6371 121.987 2.8397e-07 151.36 6.34239e-07C180.733 9.84508e-07 204.544 26.6371 204.544 59.4987C204.544 92.3603 180.733 119 151.36 119ZM194.468 86.9201C203.02 72.4356 190.652 48.4163 166.844 33.2734C143.036 18.1305 116.802 17.5954 108.25 32.0799C99.7006 46.5644 112.068 70.5811 135.877 85.724C159.685 100.869 185.916 101.402 194.468 86.9201Z" fill="#FAF6ED"/>
<path d="M101.498 176.946L125.585 192.798L125.585 137.487L148.914 137.487C150.914 137.458 152.896 137.894 154.725 138.766C169.474 146.051 179.403 159.504 179.403 174.962C179.403 191.378 168.211 205.53 151.939 212.441L151.939 216.839C152.86 216.887 153.759 217 154.695 217C182.224 217 204.544 198.178 204.544 174.962C204.544 152.222 183.11 133.745 156.355 133L101.498 133L101.498 176.946H101.498Z" fill="#FAF6ED"/>
<g clip-path="url(#clip0_3368_52)">
<rect y="415.471" width="164.471" height="164.471" rx="82.2355" transform="rotate(-90 0 415.471)" fill="#784FE0"/>
<path d="M101.498 364.956L101.498 385.85L198.055 447.673L108.816 447.673L101.498 447.673L101.498 452.127L101.498 473.018L204.544 539L204.544 508.965L115.776 452.127L204.544 452.127L204.544 451.827L204.544 447.673L204.544 421.794L115.776 364.956L204.544 364.956L204.544 360.5L108.816 360.5L101.498 360.5L101.498 364.956Z" fill="#FFC833"/>
<path fill-rule="evenodd" clip-rule="evenodd" d="M151.36 346.5C121.987 346.5 98.1742 319.86 98.1742 286.999C98.1742 254.137 121.987 227.5 151.36 227.5C180.733 227.5 204.544 254.137 204.544 286.999C204.544 319.86 180.733 346.5 151.36 346.5ZM194.468 314.42C203.02 299.936 190.652 275.916 166.844 260.773C143.036 245.631 116.802 245.095 108.25 259.58C99.7006 274.064 112.068 298.081 135.877 313.224C159.685 328.369 185.916 328.902 194.468 314.42Z" fill="#FFC833"/>
</g>
<defs>
<clipPath id="clip0_3368_52">
<rect y="415.471" width="164.471" height="164.471" rx="82.2355" transform="rotate(-90 0 415.471)" fill="white"/>
</clipPath>
</defs>
</svg>
