<svg width="1399" height="992" viewBox="0 0 1399 992" fill="none" xmlns="http://www.w3.org/2000/svg">
<g opacity="0.3">
<ellipse cx="2.7948" cy="2.79558" rx="2.7948" ry="2.79558" transform="matrix(-1 0 0 1 860.822 132.27)" fill="white"/>
<path d="M290.106 113.091C289.847 113.54 289.866 114.25 290.366 115.276C290.856 116.284 291.756 117.478 293.018 118.783C295.538 121.388 299.42 124.349 304.07 127.035C308.72 129.72 313.225 131.603 316.741 132.483C318.502 132.924 319.986 133.106 321.103 133.027C322.242 132.947 322.866 132.609 323.125 132.16C323.384 131.712 323.364 131.002 322.865 129.976C322.374 128.968 321.475 127.773 320.212 126.468C317.693 123.863 313.81 120.902 309.16 118.217C304.51 115.531 300.005 113.649 296.49 112.768C294.729 112.327 293.245 112.145 292.127 112.224C290.989 112.305 290.365 112.643 290.106 113.091Z" stroke="white"/>
<path d="M1158.8 73.0694C1158.8 73.4563 1159.08 73.9357 1159.86 74.4609C1160.62 74.9743 1161.75 75.4564 1163.19 75.8691C1166.07 76.6926 1170.08 77.2086 1174.53 77.2086C1178.98 77.2086 1182.99 76.6926 1185.88 75.8691C1187.32 75.4564 1188.45 74.9743 1189.21 74.4609C1189.99 73.9357 1190.27 73.4563 1190.27 73.0694C1190.27 72.6825 1189.99 72.2031 1189.21 71.6779C1188.45 71.1645 1187.32 70.6825 1185.88 70.2697C1182.99 69.4462 1178.98 68.9302 1174.53 68.9302C1170.08 68.9302 1166.07 69.4462 1163.19 70.2697C1161.75 70.6825 1160.62 71.1645 1159.86 71.6779C1159.08 72.2031 1158.8 72.6825 1158.8 73.0694Z" stroke="white"/>
<path d="M1167.63 68.8701C1167.36 69.7409 1167.16 70.674 1167.07 71.6501L1167.56 71.6989C1167.52 72.1468 1167.5 72.6044 1167.5 73.0696H1167C1167 73.5511 1167.02 74.025 1167.07 74.4891L1167.56 74.4403C1167.66 75.3823 1167.84 76.281 1168.11 77.1178L1167.63 77.2692C1167.93 78.2107 1168.33 79.0794 1168.8 79.8508L1169.23 79.5881C1169.73 80.3942 1170.31 81.0814 1170.96 81.623L1170.64 82.0062C1171.39 82.6382 1172.23 83.0924 1173.13 83.3266L1173.26 82.8428C1173.67 82.9513 1174.1 83.0079 1174.53 83.0079V83.5079C1175.02 83.5079 1175.48 83.4456 1175.94 83.3266L1175.81 82.8428C1176.63 82.6294 1177.41 82.2133 1178.11 81.623L1178.43 82.0062C1179.12 81.4266 1179.74 80.6973 1180.26 79.8508L1179.84 79.5881C1180.29 78.8537 1180.67 78.0227 1180.96 77.1178L1181.44 77.2692C1181.71 76.3983 1181.91 75.4652 1182 74.4891L1181.5 74.4403C1181.55 73.9924 1181.57 73.5348 1181.57 73.0696H1182.07C1182.07 72.5881 1182.05 72.1142 1182 71.6501L1181.5 71.6989C1181.41 70.757 1181.23 69.8582 1180.96 69.0214L1181.44 68.8701C1181.14 67.9285 1180.74 67.0598 1180.26 66.2884L1179.84 66.5511C1179.34 65.745 1178.76 65.0578 1178.11 64.5162L1178.43 64.133C1177.68 63.501 1176.84 63.0469 1175.94 62.8126L1175.81 63.2964C1175.4 63.1879 1174.97 63.1313 1174.53 63.1313V62.6313C1174.05 62.6313 1173.58 62.6936 1173.13 62.8126L1173.26 63.2964C1172.44 63.5098 1171.66 63.9259 1170.96 64.5162L1170.64 64.133C1169.95 64.7126 1169.33 65.4419 1168.8 66.2884L1169.23 66.5511C1168.78 67.2856 1168.4 68.1166 1168.11 69.0214L1167.63 68.8701Z" stroke="white" stroke-dasharray="0 3"/>
<rect y="0.707205" width="5.28917" height="15.0723" rx="2.64459" transform="matrix(0.707009 0.707205 -0.707009 0.707205 1395.05 676.879)" stroke="white"/>
<ellipse cx="1.3974" cy="1.39779" rx="1.3974" ry="1.39779" transform="matrix(-1 0 0 1 1056.15 692.027)" fill="white"/>
<ellipse cx="1.3974" cy="1.39779" rx="1.3974" ry="1.39779" transform="matrix(-1 0 0 1 520.683 630.623)" fill="white"/>
<path d="M6.23842 974.468C4.0182 975.389 2.24229 977.166 1.32169 979.387L3.63114 980.344C3.31073 981.117 3.13263 981.967 3.13263 982.864C3.13263 983.762 3.31073 984.612 3.63114 985.385L1.32169 986.342C2.24229 988.563 4.01819 990.339 6.23842 991.26L7.19639 988.951C7.96915 989.272 8.81849 989.45 9.71573 989.45C10.613 989.45 11.4623 989.272 12.2351 988.951L13.193 991.26C15.4133 990.339 17.1892 988.563 18.1098 986.342L15.8003 985.385C16.1207 984.612 16.2988 983.762 16.2988 982.864C16.2988 981.967 16.1207 981.117 15.8003 980.344L18.1098 979.387C17.1892 977.166 15.4133 975.389 13.193 974.468L12.2351 976.778C11.4623 976.457 10.613 976.279 9.71573 976.279C8.81849 976.279 7.96915 976.457 7.19639 976.778L6.23842 974.468Z" stroke="white" stroke-width="5" stroke-dasharray="0 9"/>
<ellipse cx="1.3974" cy="1.39779" rx="1.3974" ry="1.39779" transform="matrix(-1 0 0 1 11.1128 981.466)" fill="white"/>
<ellipse cx="1.3974" cy="1.39779" rx="1.3974" ry="1.39779" transform="matrix(-1 0 0 1 877.303 881.956)" fill="white"/>
<ellipse cx="1.3974" cy="1.39779" rx="1.3974" ry="1.39779" transform="matrix(-1 0 0 1 502.8 54.7729)" fill="white"/>
<path d="M92.9759 4.42546C92.9759 6.27239 94.4727 7.76938 96.3188 7.76938C98.1648 7.76938 99.6616 6.27239 99.6616 4.42546C99.6616 2.57854 98.1648 1.08154 96.3188 1.08154C94.4727 1.08154 92.9759 2.57854 92.9759 4.42546Z" stroke="white"/>
<ellipse cx="1.3974" cy="1.39779" rx="1.3974" ry="1.39779" transform="matrix(-1 0 0 1 1037.94 764.488)" fill="white"/>
<rect width="0.365986" height="7.68784" transform="matrix(-1 0 0 1 229.167 445.364)" fill="white"/>
<rect width="0.366087" height="7.6857" transform="matrix(0 1 1 0 225.141 449.024)" fill="white"/>
<rect width="0.366037" height="7.68677" transform="matrix(-0.707009 0.707205 0.707009 0.707205 226.396 446.36)" fill="white"/>
<rect width="0.366037" height="7.68677" transform="matrix(0.707009 0.707205 -0.707009 0.707205 231.571 446.36)" fill="white"/>
<rect width="0.365986" height="7.68784" transform="matrix(-1 0 0 1 297.72 208.319)" fill="white"/>
<rect width="0.366087" height="7.6857" transform="matrix(0 1 1 0 293.694 211.98)" fill="white"/>
<rect width="0.366037" height="7.68677" transform="matrix(-0.707009 0.707205 0.707009 0.707205 294.949 209.316)" fill="white"/>
<rect width="0.366037" height="7.68677" transform="matrix(0.707009 0.707205 -0.707009 0.707205 300.125 209.316)" fill="white"/>
<ellipse cx="1.3974" cy="1.39779" rx="1.3974" ry="1.39779" transform="matrix(-1 0 0 1 701 29)" fill="white"/>
<path fill-rule="evenodd" clip-rule="evenodd" d="M540.382 924.965L554.142 919.18L551.067 933.798L540.382 924.965Z" stroke="white" stroke-linecap="round" stroke-linejoin="round"/>
<ellipse cx="2.7948" cy="2.79558" rx="2.7948" ry="2.79558" transform="matrix(-1 0 0 1 1359.87 618.148)" fill="white"/>
<ellipse cx="2.7948" cy="2.79558" rx="2.7948" ry="2.79558" transform="matrix(-1 0 0 1 988.261 957.629)" fill="white"/>
<ellipse cx="2.7948" cy="2.79558" rx="2.7948" ry="2.79558" transform="matrix(-1 0 0 1 256.823 727.382)" fill="white"/>
<rect y="0.707205" width="5.28917" height="15.0723" rx="2.64459" transform="matrix(0.707009 0.707205 -0.707009 0.707205 176.352 863.595)" stroke="white"/>
<ellipse cx="1.3974" cy="1.39779" rx="1.3974" ry="1.39779" transform="matrix(-1 0 0 1 383.609 847.324)" fill="white"/>
<path d="M610.772 823.383C612.992 824.304 614.768 826.081 615.689 828.302L613.379 829.259C613.7 830.032 613.878 830.881 613.878 831.779C613.878 832.677 613.7 833.526 613.379 834.299L615.689 835.256C614.768 837.477 612.992 839.254 610.772 840.175L609.814 837.866C609.041 838.186 608.192 838.365 607.295 838.365C606.397 838.365 605.548 838.186 604.775 837.866L603.817 840.175C601.597 839.254 599.821 837.477 598.9 835.256L601.21 834.299C600.89 833.526 600.711 832.677 600.711 831.779C600.711 830.881 600.89 830.032 601.21 829.259L598.9 828.302C599.821 826.081 601.597 824.304 603.817 823.383L604.775 825.692C605.548 825.372 606.397 825.193 607.295 825.193C608.192 825.193 609.041 825.372 609.814 825.692L610.772 823.383Z" stroke="white" stroke-width="5" stroke-dasharray="0 9"/>
<ellipse cx="607.294" cy="831.779" rx="1.3974" ry="1.39779" fill="white"/>
<path d="M815.033 627.346C815.033 629.193 816.53 630.69 818.376 630.69C820.222 630.69 821.719 629.193 821.719 627.346C821.719 625.499 820.222 624.002 818.376 624.002C816.53 624.002 815.033 625.499 815.033 627.346Z" stroke="white"/>
<path fill-rule="evenodd" clip-rule="evenodd" d="M1288.95 859.48L1291.17 885.808L1290.08 859.41L1295.58 885.252L1291.18 859.199L1299.88 884.148L1292.25 858.852L1304 882.514L1293.26 858.374L1307.89 880.376L1294.21 857.772L1311.48 877.768L1295.08 857.056L1314.72 874.729L1295.85 856.238L1317.55 871.31L1296.51 855.329L1319.92 867.563L1297.05 854.345L1321.81 863.547L1297.46 853.301L1323.18 859.326L1297.74 852.213L1324.02 854.967L1297.88 851.099L1324.29 850.537L1297.88 849.976L1324.02 846.108L1297.74 848.862L1323.18 841.749L1297.46 847.774L1321.81 837.528L1297.05 846.73L1319.92 833.512L1296.51 845.746L1317.55 829.765L1295.85 844.837L1314.72 826.345L1295.08 844.018L1311.48 823.307L1294.21 843.302L1307.89 820.699L1293.26 842.701L1304 818.56L1292.25 842.223L1299.88 816.927L1291.18 841.875L1295.58 815.823L1290.08 841.665L1291.17 815.267L1288.95 841.595L1286.74 815.267L1287.83 841.665L1282.33 815.823L1286.73 841.875L1278.03 816.927L1285.66 842.223L1273.91 818.56L1284.65 842.701L1270.02 820.699L1283.7 843.302L1266.43 823.307L1282.83 844.018L1263.19 826.345L1282.06 844.837L1260.36 829.765L1281.4 845.746L1257.99 833.512L1280.86 846.73L1256.1 837.528L1280.45 847.774L1254.72 841.749L1280.17 848.862L1253.89 846.108L1280.03 849.976L1253.61 850.537L1280.03 851.099L1253.89 854.967L1280.17 852.213L1254.72 859.326L1280.45 853.301L1256.1 863.547L1280.86 854.345L1257.99 867.563L1281.4 855.329L1260.36 871.31L1282.06 856.238L1263.19 874.729L1282.83 857.056L1266.43 877.768L1283.7 857.772L1270.02 880.376L1284.65 858.374L1273.91 882.514L1285.66 858.852L1278.03 884.148L1286.73 859.199L1282.33 885.252L1287.83 859.41L1286.74 885.808L1288.95 859.48Z" fill="white"/>
</g>
</svg>
