<svg width="1299" height="773" viewBox="0 0 1299 773" fill="none" xmlns="http://www.w3.org/2000/svg">
<g opacity="0.4" clip-path="url(#clip0_1118_2772)">
<path fill-rule="evenodd" clip-rule="evenodd" d="M695.824 92.0718L697.657 87.7092L693.025 88.6843L695.824 92.0718Z" stroke="white" stroke-linecap="round" stroke-linejoin="round"/>
<path fill-rule="evenodd" clip-rule="evenodd" d="M250.409 573.984L248.576 569.621L253.208 570.596L250.409 573.984Z" stroke="white" stroke-linecap="round" stroke-linejoin="round"/>
<ellipse cx="1.87" cy="1.87052" rx="1.87" ry="1.87052" transform="matrix(-1 0 0 1 858.841 331.126)" fill="white"/>
<ellipse cx="1.87" cy="1.87052" rx="1.87" ry="1.87052" transform="matrix(-1 0 0 1 95.7402 523)" fill="white"/>
<ellipse cx="1.87" cy="1.87052" rx="1.87" ry="1.87052" transform="matrix(-1 0 0 1 763.263 200.853)" fill="white"/>
<path d="M960.305 129.49C960.174 129.718 960.158 130.126 960.485 130.797C960.802 131.449 961.391 132.234 962.23 133.101C963.902 134.83 966.487 136.803 969.589 138.594C972.691 140.385 975.691 141.638 978.024 142.222C979.194 142.515 980.168 142.633 980.891 142.582C981.635 142.529 981.981 142.312 982.112 142.084C982.243 141.856 982.259 141.448 981.933 140.777C981.615 140.125 981.026 139.34 980.188 138.473C978.515 136.744 975.931 134.772 972.829 132.98C969.727 131.189 966.727 129.936 964.394 129.352C963.224 129.059 962.25 128.942 961.527 128.993C960.782 129.045 960.437 129.263 960.305 129.49Z" stroke="white"/>
<path d="M709.524 370.762C708.801 371.315 708.121 371.999 707.519 372.796L707.918 373.097C707.649 373.454 707.395 373.836 707.162 374.24C706.928 374.645 706.725 375.055 706.55 375.467L706.09 375.272C705.7 376.192 705.449 377.123 705.331 378.026L705.827 378.09C705.703 379.042 705.737 379.951 705.918 380.767L705.43 380.875C705.648 381.861 706.067 382.734 706.679 383.418L707.051 383.085C707.334 383.402 707.662 383.671 708.035 383.886C708.407 384.101 708.805 384.251 709.22 384.338L709.118 384.827C710.016 385.015 710.982 384.941 711.944 384.637L711.794 384.16C712.59 383.909 713.395 383.484 714.156 382.901L714.46 383.298C715.183 382.745 715.864 382.061 716.465 381.264L716.066 380.963C716.336 380.605 716.589 380.224 716.822 379.819C717.056 379.415 717.259 379.005 717.434 378.593L717.894 378.788C718.284 377.868 718.535 376.937 718.653 376.034L718.157 375.969C718.281 375.018 718.247 374.109 718.066 373.293L718.555 373.185C718.337 372.199 717.918 371.326 717.306 370.641L716.933 370.975C716.65 370.658 716.322 370.388 715.95 370.173C715.577 369.958 715.18 369.809 714.764 369.722L714.867 369.233C713.968 369.045 713.002 369.118 712.04 369.422L712.191 369.899C711.394 370.151 710.59 370.576 709.828 371.159L709.524 370.762Z" stroke="white" stroke-dasharray="0 3"/>
<rect y="0.707205" width="3.20808" height="9.75399" rx="1.60404" transform="matrix(0.707009 0.707205 -0.707009 0.707205 1166.1 335.207)" stroke="white"/>
<ellipse cx="0.935" cy="0.935259" rx="0.935" ry="0.935259" transform="matrix(-1 0 0 1 885.748 566.548)" fill="white"/>
<ellipse cx="0.935" cy="0.935259" rx="0.935" ry="0.935259" transform="matrix(-1 0 0 1 609.527 548.565)" fill="white"/>
<path d="M6.34926 661.734C4.67085 661.734 3.15136 662.414 2.05152 663.515L3.81966 665.282C3.16955 665.933 2.77176 666.824 2.77176 667.813H0.271762C0.271762 669.492 0.951886 671.011 2.05152 672.111L3.81966 670.344C4.46986 670.994 5.36081 671.392 6.34926 671.392V673.892C8.02767 673.892 9.54716 673.212 10.647 672.111L8.87886 670.344C9.52896 669.694 9.92676 668.802 9.92676 667.813H12.4268C12.4268 666.135 11.7466 664.615 10.647 663.515L8.87886 665.282C8.22866 664.632 7.33771 664.234 6.34926 664.234V661.734Z" stroke="white" stroke-width="5" stroke-dasharray="0 9"/>
<ellipse cx="0.935" cy="0.935259" rx="0.935" ry="0.935259" transform="matrix(-1 0 0 1 7.28418 666.877)" fill="white"/>
<ellipse cx="0.935" cy="0.935259" rx="0.935" ry="0.935259" transform="matrix(-1 0 0 1 738.87 674)" fill="white"/>
<ellipse cx="0.935065" cy="0.935194" rx="0.935065" ry="0.935194" transform="matrix(-0.865965 -0.500104 -0.499896 0.866086 1087.18 320.736)" fill="white"/>
<ellipse cx="0.935" cy="0.935259" rx="0.935" ry="0.935259" transform="matrix(-1 0 0 1 569.032 135.837)" fill="white"/>
<path d="M61.0782 321.498C61.0782 322.642 62.0057 323.57 63.1495 323.57C64.2932 323.57 65.2207 322.642 65.2207 321.498C65.2207 320.353 64.2932 319.426 63.1495 319.426C62.0057 319.426 61.0782 320.353 61.0782 321.498Z" stroke="white"/>
<ellipse cx="0.935" cy="0.935259" rx="0.935" ry="0.935259" transform="matrix(-1 0 0 1 947.419 638.133)" fill="white"/>
<rect width="0.244881" height="5.14393" transform="matrix(-1 0 0 1 201.693 135)" fill="white"/>
<rect width="0.244949" height="5.1425" transform="matrix(0 1 1 0 199 137.45)" fill="white"/>
<rect width="0.244915" height="5.14321" transform="matrix(-0.707009 0.707205 0.707009 0.707205 199.84 135.667)" fill="white"/>
<rect width="0.244915" height="5.14321" transform="matrix(0.707009 0.707205 -0.707009 0.707205 203.303 135.667)" fill="white"/>
<rect width="0.244881" height="5.14393" transform="matrix(-1 0 0 1 364.021 151.665)" fill="white"/>
<rect width="0.244949" height="5.1425" transform="matrix(0 1 1 0 361.327 154.114)" fill="white"/>
<rect width="0.244915" height="5.14321" transform="matrix(-0.707009 0.707205 0.707009 0.707205 362.167 152.331)" fill="white"/>
<rect width="0.244915" height="5.14321" transform="matrix(0.707009 0.707205 -0.707009 0.707205 365.63 152.331)" fill="white"/>
<ellipse cx="0.935" cy="0.935259" rx="0.935" ry="0.935259" transform="matrix(-1 0 0 1 1298.19 227.928)" fill="white"/>
<ellipse cx="1.87" cy="1.87052" rx="1.87" ry="1.87052" transform="matrix(-1 0 0 1 1299.23 484.22)" fill="white"/>
<ellipse cx="1.87" cy="1.87052" rx="1.87" ry="1.87052" transform="matrix(-1 0 0 1 908.74 769)" fill="white"/>
<ellipse cx="1.87" cy="1.87052" rx="1.87" ry="1.87052" transform="matrix(-1 0 0 1 462.716 590.131)" fill="white"/>
<rect y="0.707205" width="3.20808" height="9.75399" rx="1.60404" transform="matrix(0.707009 0.707205 -0.707009 0.707205 376.215 697.752)" stroke="white"/>
<ellipse cx="0.935" cy="0.935259" rx="0.935" ry="0.935259" transform="matrix(-1 0 0 1 555.754 670.385)" fill="white"/>
<path d="M839.315 596.443C839.315 597.588 840.242 598.515 841.386 598.515C842.53 598.515 843.457 597.588 843.457 596.443C843.457 595.299 842.53 594.371 841.386 594.371C840.242 594.371 839.315 595.299 839.315 596.443Z" stroke="white"/>
<path fill-rule="evenodd" clip-rule="evenodd" d="M1239.65 750.63L1241.13 768.246L1240.4 750.583L1244.08 767.874L1241.13 750.442L1246.95 767.136L1241.85 750.21L1249.71 766.042L1242.53 749.89L1252.32 764.612L1243.16 749.488L1254.72 762.866L1243.74 749.009L1256.88 760.834L1244.26 748.461L1258.78 758.546L1244.7 747.853L1260.37 756.038L1245.06 747.194L1261.63 753.351L1245.34 746.496L1262.55 750.527L1245.52 745.768L1263.11 747.61L1245.62 745.022L1263.29 744.647L1245.62 744.271L1263.11 741.683L1245.52 743.525L1262.55 738.766L1245.34 742.798L1261.63 735.942L1245.06 742.099L1260.37 733.255L1244.7 741.44L1258.78 730.748L1244.26 740.833L1256.88 728.46L1243.74 740.285L1254.72 726.427L1243.16 739.806L1252.32 724.682L1242.53 739.403L1249.71 723.251L1241.85 739.083L1246.95 722.158L1241.13 738.851L1244.08 721.419L1240.4 738.71L1241.13 721.047L1239.65 738.663L1238.16 721.047L1238.9 738.71L1235.22 721.419L1238.16 738.851L1232.34 722.158L1237.44 739.083L1229.58 723.251L1236.76 739.403L1226.98 724.682L1236.13 739.806L1224.57 726.427L1235.55 740.285L1222.41 728.46L1235.04 740.833L1220.52 730.748L1234.59 741.44L1218.93 733.255L1234.23 742.099L1217.66 735.942L1233.96 742.798L1216.74 738.766L1233.77 743.525L1216.19 741.683L1233.67 744.271L1216 744.647L1233.67 745.022L1216.19 747.61L1233.77 745.768L1216.74 750.527L1233.96 746.496L1217.66 753.351L1234.23 747.194L1218.93 756.038L1234.59 747.853L1220.52 758.546L1235.04 748.461L1222.41 760.834L1235.55 749.009L1224.57 762.866L1236.13 749.488L1226.98 764.612L1236.76 749.89L1229.58 766.042L1237.44 750.21L1232.34 767.136L1238.16 750.442L1235.22 767.874L1238.9 750.583L1238.16 768.246L1239.65 750.63Z" fill="white"/>
</g>
<defs>
<clipPath id="clip0_1118_2772">
<rect width="1299" height="773" fill="white" transform="matrix(-1 0 0 1 1299 0)"/>
</clipPath>
</defs>
</svg>
