<svg class="featuredCases__starsky" width="498" height="2286" viewBox="0 0 498 2286" fill="none" xmlns="http://www.w3.org/2000/svg">
        <g opacity="0.2">
            <path d="M444.481 1307C442.139 1307 440.018 1307.95 438.483 1309.49L440.252 1311.25C439.167 1312.34 438.5 1313.83 438.5 1315.48H436C436 1317.83 436.949 1319.95 438.483 1321.48L440.252 1319.72C441.337 1320.8 442.829 1321.47 444.481 1321.47V1323.97C446.824 1323.97 448.944 1323.02 450.479 1321.48L448.711 1319.72C449.796 1318.63 450.463 1317.14 450.463 1315.48H452.963C452.963 1313.14 452.014 1311.02 450.479 1309.49L448.711 1311.25C447.626 1310.17 446.134 1309.5 444.481 1309.5V1307Z" stroke="white" stroke-width="5" stroke-dasharray="0 9" />
            <ellipse cx="1.30486" cy="1.30522" rx="1.30486" ry="1.30522" transform="matrix(-1 0 0 1 445.786 1314.18)" fill="white" />
            <path d="M13.4813 942C11.139 942 9.01839 942.95 7.48349 944.485L9.25163 946.253C8.16654 947.338 7.49971 948.831 7.49971 950.484H4.99971C4.99971 952.827 5.94887 954.947 7.48349 956.483L9.25163 954.715C10.3369 955.801 11.8289 956.468 13.4813 956.468V958.968C15.8236 958.968 17.9442 958.018 19.4791 956.483L17.711 954.715C18.7961 953.63 19.4629 952.137 19.4629 950.484H21.9629C21.9629 948.141 21.0137 946.021 19.4791 944.485L17.711 946.253C16.6257 945.167 15.1337 944.5 13.4813 944.5V942Z" stroke="white" stroke-width="5" stroke-dasharray="0 9" />
            <ellipse cx="1.30486" cy="1.30522" rx="1.30486" ry="1.30522" transform="matrix(-1 0 0 1 14.7861 949.179)" fill="white" />
            <path fill-rule="evenodd" clip-rule="evenodd" d="M298.105 1320.22L310.955 1314.81L308.083 1328.46L298.105 1320.22Z" stroke="white" stroke-linecap="round" stroke-linejoin="round" />
            <path fill-rule="evenodd" clip-rule="evenodd" d="M0 1317.14L21.3869 1313.7L7.46615 1297.05L0 1317.14Z" fill="white" stroke="white" stroke-linecap="round" stroke-linejoin="round" />
            <path fill-rule="evenodd" clip-rule="evenodd" d="M162.941 1260.47L165.499 1254.39L159.035 1255.75L162.941 1260.47Z" stroke="white" stroke-linecap="round" stroke-linejoin="round" />
            <path fill-rule="evenodd" clip-rule="evenodd" d="M352.941 2056.47L355.499 2050.39L349.035 2051.75L352.941 2056.47Z" stroke="white" stroke-linecap="round" stroke-linejoin="round" />
            <ellipse cx="2.60972" cy="2.61045" rx="2.60972" ry="2.61045" transform="matrix(-1 0 0 1 220.22 1069)" fill="white" />
            <ellipse cx="2.60972" cy="2.61045" rx="2.60972" ry="2.61045" transform="matrix(-1 0 0 1 260.22 1779)" fill="white" />
            <ellipse cx="2.60972" cy="2.61045" rx="2.60972" ry="2.61045" transform="matrix(-1 0 0 1 268.22 1948)" fill="white" />
            <ellipse cx="2.60972" cy="2.61045" rx="2.60972" ry="2.61045" transform="matrix(-1 0 0 1 78.2197 2281)" fill="white" />
            <ellipse cx="2.60972" cy="2.61045" rx="2.60972" ry="2.61045" transform="matrix(-1 0 0 1 59.2197 1126)" fill="white" />
            <path d="M333.83 1197.47C333.596 1197.87 333.608 1198.52 334.074 1199.48C334.529 1200.41 335.367 1201.53 336.544 1202.74C338.894 1205.17 342.517 1207.94 346.857 1210.44C351.198 1212.95 355.401 1214.71 358.68 1215.53C360.323 1215.94 361.705 1216.11 362.743 1216.03C363.803 1215.96 364.371 1215.64 364.605 1215.24C364.838 1214.84 364.826 1214.19 364.361 1213.23C363.905 1212.29 363.068 1211.18 361.89 1209.96C359.54 1207.53 355.917 1204.77 351.577 1202.27C347.237 1199.76 343.033 1198 339.754 1197.18C338.112 1196.77 336.73 1196.6 335.691 1196.67C334.631 1196.75 334.063 1197.06 333.83 1197.47Z" stroke="white" />
            <path d="M178.5 939.747C178.5 940.214 178.835 940.77 179.716 941.365C180.578 941.948 181.86 942.493 183.488 942.958C186.738 943.887 191.256 944.468 196.268 944.468C201.28 944.468 205.798 943.887 209.048 942.958C210.676 942.493 211.958 941.948 212.821 941.365C213.701 940.77 214.036 940.214 214.036 939.747C214.036 939.28 213.701 938.724 212.821 938.129C211.958 937.546 210.676 937.002 209.048 936.536C205.798 935.608 201.28 935.026 196.268 935.026C191.256 935.026 186.738 935.608 183.488 936.536C181.86 937.002 180.578 937.546 179.716 938.129C178.835 938.724 178.5 939.28 178.5 939.747Z" stroke="white" />
            <path d="M188.501 935.021C188.19 936.001 187.972 937.051 187.865 938.149L188.362 938.198C188.313 938.704 188.287 939.221 188.287 939.747H187.787C187.787 940.289 187.813 940.822 187.865 941.345L188.362 941.296C188.467 942.36 188.677 943.376 188.978 944.322L188.501 944.473C188.838 945.533 189.284 946.51 189.82 947.378L190.246 947.116C190.809 948.028 191.471 948.807 192.204 949.421L191.883 949.804C192.732 950.515 193.677 951.026 194.686 951.29L194.813 950.806C195.285 950.93 195.771 950.994 196.268 950.994V951.494C196.809 951.494 197.338 951.424 197.85 951.29L197.724 950.806C198.653 950.564 199.534 950.09 200.332 949.421L200.654 949.804C201.432 949.152 202.128 948.331 202.717 947.378L202.291 947.116C202.804 946.285 203.234 945.345 203.559 944.322L204.036 944.473C204.347 943.493 204.564 942.443 204.672 941.345L204.175 941.296C204.224 940.79 204.25 940.273 204.25 939.747H204.75C204.75 939.205 204.724 938.672 204.672 938.149L204.175 938.198C204.07 937.134 203.86 936.118 203.559 935.172L204.036 935.021C203.699 933.961 203.253 932.984 202.717 932.116L202.291 932.378C201.728 931.466 201.065 930.687 200.332 930.073L200.654 929.69C199.805 928.979 198.859 928.468 197.85 928.204L197.724 928.688C197.252 928.564 196.766 928.5 196.268 928.5V928C195.728 928 195.199 928.07 194.686 928.204L194.813 928.688C193.884 928.931 193.003 929.404 192.204 930.073L191.883 929.69C191.105 930.342 190.408 931.163 189.82 932.116L190.246 932.378C189.732 933.209 189.303 934.149 188.978 935.172L188.501 935.021Z" stroke="white" stroke-dasharray="0 3" />
            <path d="M431.5 2248.75C431.5 2249.21 431.835 2249.77 432.716 2250.37C433.578 2250.95 434.86 2251.49 436.488 2251.96C439.738 2252.89 444.256 2253.47 449.268 2253.47C454.28 2253.47 458.798 2252.89 462.048 2251.96C463.676 2251.49 464.958 2250.95 465.821 2250.37C466.701 2249.77 467.036 2249.21 467.036 2248.75C467.036 2248.28 466.701 2247.72 465.821 2247.13C464.958 2246.55 463.676 2246 462.048 2245.54C458.798 2244.61 454.28 2244.03 449.268 2244.03C444.256 2244.03 439.738 2244.61 436.488 2245.54C434.86 2246 433.578 2246.55 432.716 2247.13C431.835 2247.72 431.5 2248.28 431.5 2248.75Z" stroke="white" />
            <path d="M441.501 2244.02C441.19 2245 440.972 2246.05 440.865 2247.15L441.362 2247.2C441.313 2247.7 441.287 2248.22 441.287 2248.75H440.787C440.787 2249.29 440.813 2249.82 440.865 2250.34L441.362 2250.3C441.467 2251.36 441.677 2252.38 441.978 2253.32L441.501 2253.47C441.838 2254.53 442.284 2255.51 442.82 2256.38L443.246 2256.12C443.809 2257.03 444.471 2257.81 445.204 2258.42L444.883 2258.8C445.732 2259.52 446.677 2260.03 447.686 2260.29L447.813 2259.81C448.285 2259.93 448.771 2259.99 449.268 2259.99V2260.49C449.809 2260.49 450.338 2260.42 450.85 2260.29L450.724 2259.81C451.653 2259.56 452.534 2259.09 453.332 2258.42L453.654 2258.8C454.432 2258.15 455.128 2257.33 455.717 2256.38L455.291 2256.12C455.804 2255.28 456.234 2254.34 456.559 2253.32L457.036 2253.47C457.347 2252.49 457.564 2251.44 457.672 2250.34L457.175 2250.3C457.224 2249.79 457.25 2249.27 457.25 2248.75H457.75C457.75 2248.21 457.724 2247.67 457.672 2247.15L457.175 2247.2C457.07 2246.13 456.86 2245.12 456.559 2244.17L457.036 2244.02C456.699 2242.96 456.253 2241.98 455.717 2241.12L455.291 2241.38C454.728 2240.47 454.065 2239.69 453.332 2239.07L453.654 2238.69C452.805 2237.98 451.859 2237.47 450.85 2237.2L450.724 2237.69C450.252 2237.56 449.766 2237.5 449.268 2237.5V2237C448.728 2237 448.199 2237.07 447.686 2237.2L447.813 2237.69C446.884 2237.93 446.003 2238.4 445.204 2239.07L444.883 2238.69C444.105 2239.34 443.408 2240.16 442.82 2241.12L443.246 2241.38C442.732 2242.21 442.303 2243.15 441.978 2244.17L441.501 2244.02Z" stroke="white" stroke-dasharray="0 3" />
            <path d="M439.015 1672.25C438.57 1673.91 438.265 1675.64 438.112 1677.4L443.592 1677.88C443.531 1678.58 443.5 1679.3 443.5 1680.02H438C438 1680.9 438.038 1681.78 438.112 1682.64L443.592 1682.16C443.717 1683.61 443.966 1685.01 444.329 1686.37L439.015 1687.79C439.47 1689.5 440.072 1691.14 440.805 1692.71L445.788 1690.38C446.394 1691.68 447.111 1692.92 447.927 1694.08L443.424 1697.24C444.429 1698.67 445.555 1700.01 446.789 1701.25L450.679 1697.36C451.688 1698.37 452.784 1699.29 453.954 1700.11L450.795 1704.61C452.219 1705.61 453.733 1706.49 455.324 1707.23L457.652 1702.25C458.932 1702.85 460.273 1703.34 461.661 1703.71L460.24 1709.02C461.905 1709.47 463.628 1709.77 465.394 1709.93L465.867 1704.45C466.573 1704.51 467.288 1704.54 468.012 1704.54V1710.04C468.894 1710.04 469.767 1710 470.63 1709.93L470.156 1704.45C471.6 1704.32 473.005 1704.07 474.362 1703.71L475.783 1709.02C477.486 1708.57 479.13 1707.97 480.7 1707.23L478.371 1702.25C479.669 1701.64 480.906 1700.93 482.069 1700.11L485.229 1704.61C486.661 1703.61 488.001 1702.48 489.235 1701.25L485.345 1697.36C486.354 1696.35 487.275 1695.25 488.096 1694.08L492.599 1697.24C493.598 1695.81 494.476 1694.3 495.219 1692.71L490.235 1690.38C490.833 1689.1 491.323 1687.76 491.694 1686.37L497.008 1687.79C497.453 1686.13 497.758 1684.4 497.911 1682.64L492.431 1682.16C492.492 1681.46 492.523 1680.74 492.523 1680.02H498.023C498.023 1679.14 497.985 1678.26 497.911 1677.4L492.431 1677.88C492.307 1676.43 492.057 1675.03 491.694 1673.67L497.008 1672.25C496.553 1670.55 495.952 1668.9 495.219 1667.33L490.235 1669.66C489.629 1668.36 488.912 1667.12 488.096 1665.96L492.599 1662.8C491.595 1661.37 490.468 1660.03 489.235 1658.79L485.345 1662.68C484.336 1661.67 483.24 1660.75 482.069 1659.93L485.229 1655.43C483.805 1654.43 482.29 1653.55 480.7 1652.81L478.371 1657.79C477.091 1657.19 475.751 1656.7 474.362 1656.33L475.783 1651.02C474.118 1650.57 472.396 1650.27 470.63 1650.11L470.156 1655.59C469.451 1655.53 468.735 1655.5 468.012 1655.5V1650C467.13 1650 466.256 1650.04 465.394 1650.11L465.867 1655.59C464.424 1655.72 463.018 1655.97 461.661 1656.33L460.24 1651.02C458.537 1651.47 456.893 1652.07 455.324 1652.81L457.652 1657.79C456.355 1658.4 455.118 1659.11 453.954 1659.93L450.795 1655.43C449.363 1656.43 448.022 1657.56 446.789 1658.79L450.679 1662.68C449.67 1663.69 448.748 1664.79 447.927 1665.96L443.424 1662.8C442.425 1664.23 441.547 1665.74 440.805 1667.33L445.788 1669.66C445.19 1670.94 444.7 1672.28 444.329 1673.67L439.015 1672.25Z" stroke="white" stroke-width="11" stroke-dasharray="0 5" />
            <path d="M468.012 1671.54C465.669 1671.54 463.549 1672.49 462.014 1674.02L463.782 1675.79C462.697 1676.87 462.03 1678.37 462.03 1680.02H459.53C459.53 1682.36 460.479 1684.48 462.014 1686.02L463.782 1684.25C464.867 1685.34 466.359 1686 468.012 1686V1688.5C470.354 1688.5 472.474 1687.55 474.009 1686.02L472.241 1684.25C473.326 1683.17 473.993 1681.67 473.993 1680.02H476.493C476.493 1677.68 475.544 1675.56 474.009 1674.02L472.241 1675.79C471.156 1674.7 469.664 1674.04 468.012 1674.04V1671.54Z" stroke="white" stroke-width="5" stroke-dasharray="0 9" />
            <path d="M344.853 1198.38C344.094 1199.07 343.381 1199.87 342.738 1200.77L343.145 1201.06C342.849 1201.47 342.568 1201.91 342.305 1202.36L341.872 1202.11C341.601 1202.58 341.358 1203.06 341.141 1203.53L341.596 1203.74C341.155 1204.71 340.829 1205.7 340.617 1206.67L340.128 1206.56C339.89 1207.65 339.788 1208.72 339.818 1209.74L340.318 1209.72C340.35 1210.79 340.535 1211.8 340.862 1212.7L340.393 1212.87C340.772 1213.91 341.336 1214.83 342.078 1215.56L342.429 1215.2C342.776 1215.55 343.165 1215.85 343.596 1216.09L343.346 1216.53C343.814 1216.8 344.307 1217 344.817 1217.14L344.95 1216.66C345.876 1216.91 346.875 1216.94 347.901 1216.76L347.988 1217.26C348.988 1217.08 350.001 1216.72 350.987 1216.19L350.75 1215.75C351.61 1215.28 352.452 1214.69 353.244 1213.96L353.581 1214.33C354.341 1213.64 355.054 1212.84 355.697 1211.94L355.29 1211.65C355.586 1211.24 355.867 1210.8 356.13 1210.35L356.563 1210.6C356.834 1210.13 357.077 1209.65 357.294 1209.17L356.839 1208.97C357.28 1207.99 357.606 1207.01 357.818 1206.04L358.306 1206.15C358.545 1205.06 358.647 1203.99 358.616 1202.97L358.117 1202.98C358.085 1201.91 357.9 1200.91 357.573 1200.01L358.042 1199.84C357.663 1198.8 357.099 1197.88 356.357 1197.15L356.006 1197.5C355.659 1197.16 355.27 1196.86 354.839 1196.61L355.089 1196.18C354.621 1195.91 354.128 1195.71 353.617 1195.57L353.485 1196.05C352.559 1195.79 351.56 1195.76 350.534 1195.94L350.447 1195.45C349.447 1195.63 348.434 1195.99 347.448 1196.52L347.685 1196.96C346.825 1197.42 345.983 1198.02 345.19 1198.75L344.853 1198.38Z" stroke="white" stroke-dasharray="0 3" />
            <path d="M15.5275 1604.83C15.9318 1605.06 16.5807 1605.05 17.5359 1604.58C18.472 1604.13 19.5843 1603.29 20.8014 1602.11C23.2304 1599.76 25.9929 1596.14 28.4987 1591.8C31.0046 1587.45 32.7607 1583.25 33.5815 1579.97C33.9928 1578.33 34.1619 1576.94 34.0885 1575.91C34.0137 1574.85 33.6999 1574.28 33.2956 1574.04C32.8913 1573.81 32.2423 1573.82 31.2872 1574.29C30.3511 1574.74 29.2388 1575.58 28.0217 1576.76C25.5927 1579.11 22.8302 1582.73 20.3244 1587.08C17.8185 1591.42 16.0623 1595.62 15.2416 1598.9C14.8303 1600.54 14.6612 1601.93 14.7346 1602.97C14.8094 1604.03 15.1231 1604.59 15.5275 1604.83Z" stroke="white" />
            <path d="M16.4352 1593.8C17.1281 1594.56 17.9286 1595.27 18.8258 1595.92L19.1169 1595.51C19.5303 1595.81 19.9651 1596.09 20.4202 1596.35L20.1702 1596.78C20.6394 1597.05 21.1145 1597.3 21.5925 1597.51L21.7989 1597.06C22.7727 1597.5 23.7575 1597.83 24.7269 1598.04L24.6199 1598.53C25.7057 1598.77 26.7753 1598.87 27.795 1598.84L27.7801 1598.34C28.8516 1598.31 29.8569 1598.12 30.7552 1597.79L30.9266 1598.26C31.9664 1597.88 32.8815 1597.32 33.6141 1596.58L33.2583 1596.23C33.6011 1595.88 33.8999 1595.49 34.1484 1595.06L34.5814 1595.31C34.8517 1594.84 35.0554 1594.35 35.1957 1593.84L34.7136 1593.7C34.968 1592.78 34.9988 1591.78 34.8187 1590.75L35.3111 1590.67C35.1355 1589.67 34.7733 1588.65 34.2428 1587.67L33.8025 1587.9C33.3396 1587.04 32.7407 1586.2 32.0175 1585.41L32.3869 1585.07C31.694 1584.31 30.8934 1583.6 29.9963 1582.95L29.7052 1583.36C29.2918 1583.06 28.857 1582.78 28.4019 1582.52L28.6518 1582.09C28.1826 1581.82 27.7076 1581.57 27.2296 1581.36L27.0232 1581.81C26.0493 1581.37 25.0645 1581.04 24.0951 1580.83L24.2022 1580.34C23.1164 1580.11 22.0467 1580 21.027 1580.03L21.042 1580.53C19.9704 1580.57 18.9652 1580.75 18.0669 1581.08L17.8955 1580.61C16.8557 1580.99 15.9405 1581.55 15.208 1582.29L15.5638 1582.65C15.221 1582.99 14.9221 1583.38 14.6736 1583.81L14.2406 1583.56C13.9704 1584.03 13.7667 1584.52 13.6263 1585.03L14.1084 1585.17C13.854 1586.09 13.8233 1587.09 14.0034 1588.12L13.511 1588.2C13.6865 1589.21 14.0488 1590.22 14.5793 1591.2L15.0195 1590.97C15.4824 1591.83 16.0814 1592.67 16.8045 1593.46L16.4352 1593.8Z" stroke="white" stroke-dasharray="0 3" />
            <rect y="0.707205" width="4.87269" height="14.008" rx="2.43634" transform="matrix(0.707009 0.707205 -0.707009 0.707205 236.11 1617.21)" stroke="white" />
            <rect y="0.707205" width="4.87269" height="14.008" rx="2.43634" transform="matrix(0.707009 0.707205 -0.707009 0.707205 392.11 1898.21)" stroke="white" />
            <ellipse cx="1.30486" cy="1.30522" rx="1.30486" ry="1.30522" transform="matrix(-1 0 0 1 302.242 1563.98)" fill="white" />
            <ellipse cx="1.30486" cy="1.30522" rx="1.30486" ry="1.30522" transform="matrix(-1 0 0 1 141.609 1835)" fill="white" />
            <path d="M466.481 1037C464.139 1037 462.018 1037.95 460.483 1039.49L462.252 1041.25C461.167 1042.34 460.5 1043.83 460.5 1045.48H458C458 1047.83 458.949 1049.95 460.483 1051.48L462.252 1049.72C463.337 1050.8 464.829 1051.47 466.481 1051.47V1053.97C468.824 1053.97 470.944 1053.02 472.479 1051.48L470.711 1049.72C471.796 1048.63 472.463 1047.14 472.463 1045.48H474.963C474.963 1043.14 474.014 1041.02 472.479 1039.49L470.711 1041.25C469.626 1040.17 468.134 1039.5 466.481 1039.5V1037Z" stroke="white" stroke-width="5" stroke-dasharray="0 9" />
            <ellipse cx="1.30486" cy="1.30522" rx="1.30486" ry="1.30522" transform="matrix(-1 0 0 1 467.786 1044.18)" fill="white" />
            <path d="M11.4813 1913C9.13896 1913 7.01839 1913.95 5.48349 1915.49L7.25163 1917.25C6.16654 1918.34 5.49971 1919.83 5.49971 1921.48H2.99971C2.99971 1923.83 3.94887 1925.95 5.48349 1927.48L7.25163 1925.72C8.3369 1926.8 9.82892 1927.47 11.4813 1927.47V1929.97C13.8236 1929.97 15.9442 1929.02 17.4791 1927.48L15.711 1925.72C16.7961 1924.63 17.4629 1923.14 17.4629 1921.48H19.9629C19.9629 1919.14 19.0137 1917.02 17.4791 1915.49L15.711 1917.25C14.6257 1916.17 13.1337 1915.5 11.4813 1915.5V1913Z" stroke="white" stroke-width="5" stroke-dasharray="0 9" />
            <ellipse cx="1.30486" cy="1.30522" rx="1.30486" ry="1.30522" transform="matrix(-1 0 0 1 12.7861 1920.18)" fill="white" />
            <ellipse cx="1.30486" cy="1.30522" rx="1.30486" ry="1.30522" transform="matrix(-1 0 0 1 317.248 1068)" fill="white" />
            <ellipse cx="1.30486" cy="1.30522" rx="1.30486" ry="1.30522" transform="matrix(-1 0 0 1 478.609 2006)" fill="white" />
            <ellipse cx="1.30486" cy="1.30522" rx="1.30486" ry="1.30522" transform="matrix(-1 0 0 1 142.396 1081.71)" fill="white" />
            <ellipse cx="1.30495" cy="1.30513" rx="1.30495" ry="1.30513" transform="matrix(-0.865965 -0.500104 -0.499896 0.866086 343.823 1201.96)" fill="white" />
            <ellipse cx="1.30486" cy="1.30522" rx="1.30486" ry="1.30522" transform="matrix(-1 0 0 1 380.609 968)" fill="white" />
            <ellipse cx="1.30495" cy="1.30513" rx="1.30495" ry="1.30513" transform="matrix(-0.865965 -0.500104 -0.499896 0.866086 358.829 1210.44)" fill="white" />
            <mask id="path-38-inside-1_385_9326" fill="white">
                <path d="M139.787 1403.77C139.787 1405.75 141.394 1407.36 143.376 1407.36C145.357 1407.36 146.964 1405.75 146.964 1403.77C146.964 1401.79 145.357 1400.18 143.376 1400.18C141.394 1400.18 139.787 1401.79 139.787 1403.77Z" />
            </mask>
            <path d="M139.787 1403.77C139.787 1405.75 141.394 1407.36 143.376 1407.36C145.357 1407.36 146.964 1405.75 146.964 1403.77C146.964 1401.79 145.357 1400.18 143.376 1400.18C141.394 1400.18 139.787 1401.79 139.787 1403.77Z" stroke="white" stroke-width="2" mask="url(#path-38-inside-1_385_9326)" />
            <ellipse cx="1.30486" cy="1.30522" rx="1.30486" ry="1.30522" transform="matrix(-1 0 0 1 395.609 1488)" fill="white" />
            <rect width="0.341749" height="7.17873" transform="matrix(-1 0 0 1 211.399 1470.01)" fill="white" />
            <rect width="0.341844" height="7.17673" transform="matrix(0 1 1 0 207.64 1473.43)" fill="white" />
            <rect width="0.341797" height="7.17773" transform="matrix(-0.707009 0.707205 0.707009 0.707205 208.812 1470.94)" fill="white" />
            <rect width="0.341797" height="7.17773" transform="matrix(0.707009 0.707205 -0.707009 0.707205 213.645 1470.94)" fill="white" />
            <rect width="0.341749" height="7.17873" transform="matrix(-1 0 0 1 271.422 1236.37)" fill="white" />
            <rect width="0.341844" height="7.17673" transform="matrix(0 1 1 0 267.663 1239.79)" fill="white" />
            <rect width="0.341797" height="7.17773" transform="matrix(-0.707009 0.707205 0.707009 0.707205 268.835 1237.3)" fill="white" />
            <rect width="0.341797" height="7.17773" transform="matrix(0.707009 0.707205 -0.707009 0.707205 273.668 1237.3)" fill="white" />
            <path fill-rule="evenodd" clip-rule="evenodd" d="M139.798 2055.88L142.297 2085.54L141.061 2055.8L147.256 2084.91L142.303 2055.57L152.097 2083.67L143.506 2055.18L156.744 2081.83L144.65 2054.64L161.123 2079.42L145.718 2053.96L165.167 2076.48L146.692 2053.15L168.81 2073.06L147.558 2052.23L171.996 2069.21L148.302 2051.21L174.674 2064.99L148.911 2050.1L176.802 2060.46L149.376 2048.92L178.346 2055.71L149.691 2047.7L179.283 2050.8L149.849 2046.44L179.597 2045.81L149.849 2045.18L179.283 2040.82L149.691 2043.92L178.346 2035.91L149.376 2042.7L176.802 2031.15L148.911 2041.52L174.674 2026.63L148.302 2040.41L171.996 2022.41L147.558 2039.39L168.81 2018.56L146.692 2038.47L165.167 2015.14L145.718 2037.66L161.123 2012.2L144.65 2036.98L156.744 2009.79L143.506 2036.44L152.097 2007.95L142.303 2036.05L147.256 2006.71L141.061 2035.82L142.297 2006.08L139.798 2035.74L137.299 2006.08L138.536 2035.82L132.341 2006.71L137.294 2036.05L127.5 2007.95L136.091 2036.44L122.853 2009.79L134.947 2036.98L118.473 2012.2L133.879 2037.66L114.43 2015.14L132.904 2038.47L110.787 2018.56L132.039 2039.39L107.601 2022.41L131.295 2040.41L104.923 2026.63L130.686 2041.52L102.795 2031.15L130.22 2042.7L101.251 2035.91L129.906 2043.92L100.314 2040.82L129.747 2045.18L100 2045.81L129.747 2046.44L100.314 2050.8L129.906 2047.7L101.251 2055.71L130.22 2048.92L102.795 2060.46L130.686 2050.1L104.923 2064.99L131.295 2051.21L107.601 2069.21L132.039 2052.23L110.787 2073.06L132.904 2053.15L114.43 2076.48L133.879 2053.96L118.473 2079.42L134.947 2054.64L122.853 2081.83L136.091 2055.18L127.5 2083.67L137.294 2055.57L132.341 2084.91L138.536 2055.8L137.299 2085.54L139.798 2055.88Z" fill="white" />
        </g>
        <g opacity="0.2">
            <path fill-rule="evenodd" clip-rule="evenodd" d="M352.941 622.474L355.499 616.385L349.035 617.746L352.941 622.474Z" stroke="white" stroke-linecap="round" stroke-linejoin="round" />
            <ellipse cx="2.60972" cy="2.61045" rx="2.60972" ry="2.61045" transform="matrix(-1 0 0 1 260.22 345)" fill="white" />
            <ellipse cx="2.60972" cy="2.61045" rx="2.60972" ry="2.61045" transform="matrix(-1 0 0 1 268.22 514)" fill="white" />
            <ellipse cx="2.60972" cy="2.61045" rx="2.60972" ry="2.61045" transform="matrix(-1 0 0 1 78.2197 847)" fill="white" />
            <path d="M431.5 814.747C431.5 815.214 431.835 815.77 432.716 816.365C433.578 816.948 434.86 817.493 436.488 817.958C439.738 818.887 444.256 819.468 449.268 819.468C454.28 819.468 458.798 818.887 462.048 817.958C463.676 817.493 464.958 816.948 465.821 816.365C466.701 815.77 467.036 815.214 467.036 814.747C467.036 814.28 466.701 813.724 465.821 813.129C464.958 812.546 463.676 812.002 462.048 811.536C458.798 810.608 454.28 810.026 449.268 810.026C444.256 810.026 439.738 810.608 436.488 811.536C434.86 812.002 433.578 812.546 432.716 813.129C431.835 813.724 431.5 814.28 431.5 814.747Z" stroke="white" />
            <path d="M441.501 810.021C441.19 811.001 440.972 812.051 440.865 813.149L441.362 813.198C441.313 813.704 441.287 814.221 441.287 814.747H440.787C440.787 815.289 440.813 815.822 440.865 816.345L441.362 816.296C441.467 817.36 441.677 818.376 441.978 819.322L441.501 819.473C441.838 820.533 442.284 821.51 442.82 822.378L443.246 822.116C443.809 823.028 444.471 823.807 445.204 824.421L444.883 824.804C445.732 825.515 446.677 826.026 447.686 826.29L447.813 825.806C448.285 825.93 448.771 825.994 449.268 825.994V826.494C449.809 826.494 450.338 826.424 450.85 826.29L450.724 825.806C451.653 825.564 452.534 825.09 453.332 824.421L453.654 824.804C454.432 824.152 455.128 823.331 455.717 822.378L455.291 822.116C455.804 821.285 456.234 820.345 456.559 819.322L457.036 819.473C457.347 818.493 457.564 817.443 457.672 816.345L457.175 816.296C457.224 815.79 457.25 815.273 457.25 814.747H457.75C457.75 814.205 457.724 813.672 457.672 813.149L457.175 813.198C457.07 812.134 456.86 811.118 456.559 810.172L457.036 810.021C456.699 808.961 456.253 807.984 455.717 807.116L455.291 807.378C454.728 806.466 454.065 805.687 453.332 805.073L453.654 804.69C452.805 803.979 451.859 803.468 450.85 803.204L450.724 803.688C450.252 803.564 449.766 803.5 449.268 803.5V803C448.728 803 448.199 803.07 447.686 803.204L447.813 803.688C446.884 803.931 446.003 804.404 445.204 805.073L444.883 804.69C444.105 805.342 443.408 806.163 442.82 807.116L443.246 807.378C442.732 808.209 442.303 809.149 441.978 810.172L441.501 810.021Z" stroke="white" stroke-dasharray="0 3" />
            <path d="M439.015 238.249C438.57 239.914 438.265 241.636 438.112 243.402L443.592 243.875C443.531 244.581 443.5 245.296 443.5 246.02H438C438 246.902 438.038 247.775 438.112 248.638L443.592 248.165C443.717 249.609 443.966 251.014 444.329 252.372L439.015 253.792C439.47 255.495 440.072 257.139 440.805 258.709L445.788 256.382C446.394 257.68 447.111 258.917 447.927 260.081L443.424 263.239C444.429 264.671 445.555 266.012 446.789 267.246L450.679 263.358C451.688 264.367 452.784 265.289 453.954 266.11L450.795 270.612C452.219 271.612 453.733 272.49 455.324 273.233L457.652 268.251C458.932 268.849 460.273 269.339 461.661 269.711L460.24 275.024C461.905 275.469 463.628 275.775 465.394 275.928L465.867 270.448C466.573 270.509 467.288 270.54 468.012 270.54V276.04C468.894 276.04 469.767 276.002 470.63 275.928L470.156 270.448C471.6 270.323 473.005 270.074 474.362 269.711L475.783 275.024C477.486 274.569 479.13 273.967 480.7 273.233L478.371 268.251C479.669 267.644 480.906 266.927 482.069 266.11L485.229 270.612C486.661 269.607 488.001 268.48 489.235 267.246L485.345 263.358C486.354 262.348 487.275 261.252 488.096 260.081L492.599 263.239C493.598 261.814 494.476 260.3 495.219 258.709L490.235 256.382C490.833 255.101 491.323 253.761 491.694 252.372L497.008 253.792C497.453 252.126 497.758 250.404 497.911 248.638L492.431 248.165C492.492 247.459 492.523 246.744 492.523 246.02H498.023C498.023 245.138 497.985 244.265 497.911 243.402L492.431 243.875C492.307 242.431 492.057 241.026 491.694 239.668L497.008 238.249C496.553 236.545 495.952 234.901 495.219 233.331L490.235 235.658C489.629 234.36 488.912 233.123 488.096 231.959L492.599 228.802C491.595 227.369 490.468 226.028 489.235 224.794L485.345 228.682C484.336 227.673 483.24 226.751 482.069 225.93L485.229 221.428C483.805 220.429 482.29 219.55 480.7 218.807L478.371 223.79C477.091 223.191 475.751 222.701 474.362 222.33L475.783 217.016C474.118 216.571 472.396 216.265 470.63 216.113L470.156 221.592C469.451 221.531 468.735 221.5 468.012 221.5V216C467.13 216 466.256 216.038 465.394 216.113L465.867 221.592C464.424 221.717 463.018 221.967 461.661 222.33L460.24 217.016C458.537 217.472 456.893 218.073 455.324 218.807L457.652 223.79C456.355 224.396 455.118 225.113 453.954 225.93L450.795 221.428C449.363 222.433 448.022 223.56 446.789 224.794L450.679 228.682C449.67 229.692 448.748 230.788 447.927 231.959L443.424 228.802C442.425 230.226 441.547 231.741 440.805 233.331L445.788 235.658C445.19 236.939 444.7 238.279 444.329 239.668L439.015 238.249Z" stroke="white" stroke-width="11" stroke-dasharray="0 5" />
            <path d="M468.012 237.536C465.669 237.536 463.549 238.486 462.014 240.021L463.782 241.789C462.697 242.874 462.03 244.367 462.03 246.02H459.53C459.53 248.363 460.479 250.483 462.014 252.019L463.782 250.251C464.867 251.337 466.359 252.004 468.012 252.004V254.504C470.354 254.504 472.474 253.554 474.009 252.019L472.241 250.251C473.326 249.166 473.993 247.673 473.993 246.02H476.493C476.493 243.678 475.544 241.557 474.009 240.021L472.241 241.789C471.156 240.703 469.664 240.036 468.012 240.036V237.536Z" stroke="white" stroke-width="5" stroke-dasharray="0 9" />
            <path d="M15.5275 170.827C15.9318 171.061 16.5807 171.048 17.5359 170.583C18.472 170.127 19.5843 169.29 20.8014 168.112C23.2304 165.761 25.9929 162.137 28.4987 157.796C31.0046 153.454 32.7607 149.249 33.5815 145.97C33.9928 144.327 34.1619 142.944 34.0885 141.905C34.0137 140.845 33.6999 140.277 33.2956 140.043C32.8913 139.81 32.2423 139.822 31.2872 140.288C30.3511 140.743 29.2388 141.581 28.0217 142.759C25.5927 145.11 22.8302 148.734 20.3244 153.075C17.8185 157.417 16.0623 161.621 15.2416 164.901C14.8303 166.544 14.6612 167.927 14.7346 168.966C14.8094 170.026 15.1231 170.594 15.5275 170.827Z" stroke="white" />
            <path d="M16.4352 159.801C17.1281 160.56 17.9286 161.274 18.8258 161.917L19.1169 161.51C19.5303 161.806 19.9651 162.087 20.4202 162.35L20.1702 162.783C20.6394 163.054 21.1145 163.298 21.5925 163.514L21.7989 163.059C22.7727 163.501 23.7575 163.826 24.7269 164.039L24.6199 164.527C25.7057 164.766 26.7753 164.868 27.795 164.837L27.7801 164.337C28.8516 164.305 29.8569 164.121 30.7552 163.793L30.9266 164.263C31.9664 163.883 32.8815 163.319 33.6141 162.577L33.2583 162.226C33.6011 161.879 33.8999 161.49 34.1484 161.059L34.5814 161.309C34.8517 160.841 35.0554 160.348 35.1957 159.837L34.7136 159.705C34.968 158.778 34.9988 157.779 34.8187 156.753L35.3111 156.666C35.1355 155.666 34.7733 154.652 34.2428 153.666L33.8025 153.903C33.3396 153.043 32.7407 152.201 32.0175 151.408L32.3869 151.071C31.694 150.311 30.8934 149.597 29.9963 148.955L29.7052 149.361C29.2918 149.065 28.857 148.784 28.4019 148.521L28.6518 148.088C28.1826 147.817 27.7076 147.574 27.2296 147.357L27.0232 147.812C26.0493 147.371 25.0645 147.045 24.0951 146.832L24.2022 146.344C23.1164 146.106 22.0467 146.004 21.027 146.034L21.042 146.534C19.9704 146.566 18.9652 146.751 18.0669 147.078L17.8955 146.609C16.8557 146.988 15.9405 147.552 15.208 148.294L15.5638 148.645C15.221 148.993 14.9221 149.382 14.6736 149.812L14.2406 149.562C13.9704 150.03 13.7667 150.523 13.6263 151.034L14.1084 151.167C13.854 152.093 13.8233 153.092 14.0034 154.119L13.511 154.205C13.6865 155.205 14.0488 156.219 14.5793 157.205L15.0195 156.968C15.4824 157.828 16.0814 158.671 16.8045 159.464L16.4352 159.801Z" stroke="white" stroke-dasharray="0 3" />
            <rect y="0.707205" width="4.87269" height="14.008" rx="2.43634" transform="matrix(0.707009 0.707205 -0.707009 0.707205 236.11 183.207)" stroke="white" />
            <rect y="0.707205" width="4.87269" height="14.008" rx="2.43634" transform="matrix(0.707009 0.707205 -0.707009 0.707205 392.11 464.207)" stroke="white" />
            <ellipse cx="1.30486" cy="1.30522" rx="1.30486" ry="1.30522" transform="matrix(-1 0 0 1 302.242 129.985)" fill="white" />
            <ellipse cx="1.30486" cy="1.30522" rx="1.30486" ry="1.30522" transform="matrix(-1 0 0 1 141.609 401)" fill="white" />
            <path d="M11.4813 479C9.13896 479 7.01839 479.95 5.48349 481.485L7.25163 483.253C6.16654 484.338 5.49971 485.831 5.49971 487.484H2.99971C2.99971 489.827 3.94887 491.947 5.48349 493.483L7.25163 491.715C8.3369 492.801 9.82892 493.468 11.4813 493.468V495.968C13.8236 495.968 15.9442 495.018 17.4791 493.483L15.711 491.715C16.7961 490.63 17.4629 489.137 17.4629 487.484H19.9629C19.9629 485.141 19.0137 483.021 17.4791 481.485L15.711 483.253C14.6257 482.167 13.1337 481.5 11.4813 481.5V479Z" stroke="white" stroke-width="5" stroke-dasharray="0 9" />
            <ellipse cx="1.30486" cy="1.30522" rx="1.30486" ry="1.30522" transform="matrix(-1 0 0 1 12.7861 486.179)" fill="white" />
            <ellipse cx="1.30486" cy="1.30522" rx="1.30486" ry="1.30522" transform="matrix(-1 0 0 1 478.609 572)" fill="white" />
            <ellipse cx="1.30486" cy="1.30522" rx="1.30486" ry="1.30522" transform="matrix(-1 0 0 1 395.609 54)" fill="white" />
            <rect width="0.341749" height="7.17873" transform="matrix(-1 0 0 1 211.399 36.0088)" fill="white" />
            <rect width="0.341844" height="7.17673" transform="matrix(0 1 1 0 207.64 39.4272)" fill="white" />
            <rect width="0.341797" height="7.17773" transform="matrix(-0.707009 0.707205 0.707009 0.707205 208.812 36.9395)" fill="white" />
            <rect width="0.341797" height="7.17773" transform="matrix(0.707009 0.707205 -0.707009 0.707205 213.645 36.9395)" fill="white" />
            <path fill-rule="evenodd" clip-rule="evenodd" d="M139.798 621.883L142.297 651.54L141.061 621.804L147.256 650.913L142.303 621.567L152.097 649.67L143.506 621.176L156.744 647.83L144.65 620.637L161.123 645.421L145.718 619.959L165.167 642.483L146.692 619.153L168.81 639.061L147.558 618.231L171.996 635.209L148.302 617.207L174.674 630.988L148.911 616.098L176.802 626.464L149.376 614.922L178.346 621.709L149.691 613.697L179.283 616.799L149.849 612.442L179.597 611.809L149.849 611.177L179.283 606.82L149.691 609.922L178.346 601.909L149.376 608.696L176.802 597.155L148.911 607.52L174.674 592.631L148.302 606.412L171.996 588.41L147.558 605.388L168.81 584.558L146.692 604.466L165.167 581.136L145.718 603.66L161.123 578.197L144.65 602.982L156.744 575.789L143.506 602.443L152.097 573.948L142.303 602.052L147.256 572.705L141.061 601.815L142.297 572.079L139.798 601.736L137.299 572.079L138.536 601.815L132.341 572.705L137.294 602.052L127.5 573.948L136.091 602.443L122.853 575.789L134.947 602.982L118.473 578.197L133.879 603.66L114.43 581.136L132.904 604.466L110.787 584.558L132.039 605.388L107.601 588.41L131.295 606.412L104.923 592.631L130.686 607.52L102.795 597.155L130.22 608.696L101.251 601.909L129.906 609.922L100.314 606.82L129.747 611.177L100 611.809L129.747 612.442L100.314 616.799L129.906 613.697L101.251 621.709L130.22 614.922L102.795 626.464L130.686 616.098L104.923 630.988L131.295 617.207L107.601 635.209L132.039 618.231L110.787 639.061L132.904 619.153L114.43 642.483L133.879 619.959L118.473 645.421L134.947 620.637L122.853 647.83L136.091 621.176L127.5 649.67L137.294 621.567L132.341 650.913L138.536 621.804L137.299 651.54L139.798 621.883Z" fill="white" />
        </g>

</svg>